<?xml version="1.0" encoding="utf-8"?>
<!-- Generator: Adobe Illustrator 26.5.0, SVG Export Plug-In . SVG Version: 6.00 Build 0)  -->
<svg version="1.1" xmlns="http://www.w3.org/2000/svg" xmlns:xlink="http://www.w3.org/1999/xlink" x="0px" y="0px"
	 viewBox="0 0 512 513" style="enable-background:new 0 0 512 513;" xml:space="preserve">
<style type="text/css">
	.st0{display:none;}
	.st1{display:inline;fill:#E9D3AC;}
	.st2{fill:#1A2C44;}
	.st3{display:inline;fill-rule:evenodd;clip-rule:evenodd;fill:#1A2C44;}
	.st4{display:inline;fill:#1A2C44;}
	.st5{display:none;fill:none;stroke:#1A2C44;stroke-width:18;stroke-miterlimit:10;}
	.st6{display:none;fill:#1A2C44;}
</style>
<g id="circulo" class="st0">
	<circle class="st1" cx="256" cy="256" r="254"/>
</g>
<g id="iconos">
	<path id="facebook" class="st2" d="M351,288c-19,0-38,0-57,0c0,59.67,0,119.33,0,179c-28,0-56,0-84,0c0-59.67,0-119.33,0-179
		c-21.33,0-42.67,0-64,0c0-24,0-48,0-72c21.33,0,42.67,0,64,0c0-18.67,0-37.33,0-56c-0.49-5.99-2.85-41.83,24-71
		c31.74-34.48,76.6-29.56,81-29c17,1.67,34,3.33,51,5c-0.1,21.88-0.2,43.76-0.3,65.64c-13.9,0.12-27.8,0.24-41.7,0.36
		c-1.8,0.01-13.57,0.26-22,10c-7.13,8.25-7.07,17.77-7,20c-0.33,18.33-0.67,36.67-1,55c22.67,0,45.33,0,68,0
		C358.33,240,354.67,264,351,288z"/>
	<g id="x" class="st0">
		<polygon class="st3" points="232.61,261.12 250.49,284.24 161.25,380 121.59,380 		"/>
		<polygon class="st3" points="392.01,132.33 287.45,244.61 269.72,221.36 352.95,132.33 		"/>
		<path class="st4" d="M204.44,159.85l146.91,192.63h-30.53L173.69,159.85H204.44 M220.11,132.33H116L305.19,380H409L220.11,132.33
			L220.11,132.33z"/>
	</g>
	<path id="insta" class="st5" d="M194.2,420.64h140.28c51.65,0,93.52-41.87,93.52-93.52V186.84c0-51.65-41.87-93.52-93.52-93.52
		H194.2c-51.65,0-93.52,41.87-93.52,93.52v140.28C100.68,378.77,142.55,420.64,194.2,420.64z"/>
	<circle id="insta_1_" class="st5" cx="264.34" cy="256.98" r="77.93"/>
	<circle id="insta_2_" class="st6" cx="357.86" cy="163.46" r="15.59"/>
	<path id="linke" class="st6" d="M182.03,379.13h-64.75V190.99h64.75V379.13z M148.51,156.51c-19.79,0-33-13.82-33-32.25
		S128.7,92,150.69,92c19.79,0,33,13.82,33,32.25S170.5,156.51,148.51,156.51z M413,379.13h-62.67V276.3
		c0-28.44-16.71-34.99-22.97-34.99c-6.26,0-27.15,4.38-27.15,34.99c0,4.38,0,102.83,0,102.83h-64.75V190.99h64.75v26.26
		c8.34-15.32,25.05-26.26,56.38-26.26c31.34,0,56.41,26.26,56.41,85.31V379.13z"/>
	<g id="youtube" class="st0">
		<path class="st4" d="M391.35,178.3c-2.66-14.64-15.31-25.29-29.94-28.61c-21.96-4.66-62.55-7.99-106.47-7.99
			s-85.18,3.33-107.14,7.99c-14.64,3.33-27.28,13.31-29.94,28.61c-2.66,16.64-5.32,39.93-5.32,69.87s2.66,53.24,5.99,69.87
			c2.66,14.64,15.31,25.29,29.94,28.61c23.29,4.66,63.22,7.99,107.14,7.99s83.85-3.33,107.14-7.99
			c14.64-3.33,27.28-13.31,29.94-28.61c2.66-16.59,5.97-40.47,6.65-69.65c0-0.15,0-0.29,0-0.44
			C397.99,218.11,394.67,194.9,391.35,178.3z M219,284.54v-72.73c0-4.55,4.92-7.4,8.86-5.13l63.38,36.36
			c3.96,2.27,3.96,7.99,0,10.26l-63.38,36.36C223.92,291.93,219,289.08,219,284.54z"/>
	</g>
</g>
</svg>
