<?xml version="1.0" encoding="UTF-8"?>
<svg id="iconos" xmlns="http://www.w3.org/2000/svg" viewBox="0 0 508 508">
  <defs>
    <style>
      .cls-1 {
        fill: #1a2c44;
      }
    </style>
  </defs>
  <g id="youtube">
    <path class="cls-1" d="M389.35,176.3c-2.66-14.64-15.31-25.29-29.94-28.61-21.96-4.66-62.55-7.99-106.47-7.99s-85.18,3.33-107.14,7.99c-14.64,3.33-27.28,13.31-29.94,28.61-2.66,16.64-5.32,39.93-5.32,69.87s2.66,53.24,5.99,69.87c2.66,14.64,15.31,25.29,29.94,28.61,23.29,4.66,63.22,7.99,107.14,7.99s83.85-3.33,107.14-7.99c14.64-3.33,27.28-13.31,29.94-28.61,2.66-16.59,5.97-40.47,6.65-69.65,0-.15,0-.29,0-.44-1.34-29.84-4.66-53.06-7.98-69.65Zm-172.35,106.24v-72.73c0-4.55,4.92-7.4,8.86-5.13l63.38,36.36c3.96,2.27,3.96,7.99,0,10.26l-63.38,36.36c-3.94,2.26-8.86-.58-8.86-5.13Z"/>
  </g>
</svg>