<svg xmlns="http://www.w3.org/2000/svg" viewBox="0 0 306.41 193.17"><defs><style>.cls-1{fill:#56c5c7;}.cls-2{fill:#022b56;}.cls-3{fill:#ebe8d5;}.cls-4{fill:#fcfbf7;}</style></defs><g id="Layer_2" data-name="Layer 2"><g id="Artboard_1" data-name="Artboard 1"><path class="cls-1" d="M97.3,88.89C99.36,68,110.53,48.61,110.53,48.61L57.61,91.53C67.6,88,97.3,88.89,97.3,88.89Z" transform="translate(0 0)"/><path class="cls-1" d="M61.48,73.89C44.72,89.77,43,103.29,43,103.29L139.09,26C110.28,26.56,78.24,58,61.48,73.89Z" transform="translate(0 0)"/><path class="cls-1" d="M68.24,120.35,150,33s-27.63,39.1-18.23,79.08C131.74,112.11,109.11,120.35,68.24,120.35Z" transform="translate(0 0)"/><path class="cls-1" d="M162,37.73,97.64,136.22l64.09-2.64s-14.7-21.17,0-87.32Z" transform="translate(0 0)"/><path class="cls-1" d="M163.79,39.5l18.82-9.41s20.58,88.2,34.1,101.13l-53.51,2.06Z" transform="translate(0 0)"/><path class="cls-1" d="M164.08,6.28a88.17,88.17,0,0,0,18.23,33.8L169.08,60.66S162.32,19.21,164.08,6.28Z" transform="translate(0 0)"/><path class="cls-1" d="M219.65,50.67,237,44.2S246.4,103,257.87,123l-38.52,7.65Z" transform="translate(0 0)"/><path class="cls-1" d="M219.16,22.44s6.37,17.35,16.07,24.11L227,67.43S222.88,61.84,219.16,22.44Z" transform="translate(0 0)"/><path class="cls-2" d="M56.44,129.12l4.23-4.79,4.91-5.44c1.89-2.11,4.07-4.45,6.43-7s4.93-5.34,7.69-8.23,5.7-5.9,8.73-9,6.15-6.38,9.29-9.71l4.7-5.06,4.68-5.15c3.12-3.45,6.25-6.89,9.34-10.26s6.17-6.66,9.12-9.86c5.93-6.39,11.53-12.29,16.37-17.31l6.6-6.84,5.13-5.25,4.5-4.54.09.08L154,25.5,149.1,31l-6.41,7c-4.7,5.15-10.22,11.12-16.22,17.44l-9.25,9.74c-3.17,3.3-6.39,6.65-9.64,10l-4.84,5-4.75,5c-3.12,3.34-6.18,6.65-9.09,9.89s-5.72,6.38-8.45,9.3-5.31,5.67-7.71,8.19-4.6,4.85-6.59,6.87L61,124.68l-4.52,4.53Z" transform="translate(0 0)"/><path class="cls-2" d="M64.63,120.26q2.43-2.83,4.91-5.63L74.49,109l10-11.11,10.12-11c3.37-3.67,6.75-7.33,10.18-11s6.89-7.21,10.38-10.77l10.44-10.7q5.22-5.34,10.34-10.8c1.72-1.8,3.39-3.65,5.09-5.47l5.07-5.49.68.55c-1,1.41-1.85,2.91-2.72,4.4s-1.69,3-2.49,4.55-1.58,3.07-2.31,4.64-1.44,3.14-2.11,4.73-1.33,3.18-1.93,4.8-1.21,3.23-1.78,4.85l-.81,2.46-.75,2.47c-.47,1.65-1,3.31-1.35,5s-.78,3.34-1.15,5-.65,3.37-.87,5.07-.44,3.4-.63,5.11-.29,3.41-.31,5.12,0,3.42,0,5.13c0,.85.08,1.71.11,2.56s.08,1.7.18,2.55l.26,2.55c.11.84.26,1.68.38,2.53.22,1.69.64,3.35.95,5l.21,1.14-1,.34c-1.34.46-2.62.83-3.93,1.2s-2.62.7-3.93,1-2.63.61-4,.89-2.65.51-4,.77-2.66.45-4,.68-2.66.4-4,.6-2.66.37-4,.52-2.66.34-4,.47l-4,.37c-1.34.13-2.68.18-4,.28s-2.68.19-4,.23l-4,.17c-2.68.13-5.36.08-8,.12-1.34,0-2.69,0-4,0l-4.27-.1Zm.39-.05,3.71-.18c1.33-.06,2.67-.09,4-.18,2.67-.19,5.34-.33,8-.55l4-.33c1.34-.1,2.66-.28,4-.41s2.66-.26,4-.45l4-.51c1.32-.15,2.64-.37,4-.56s2.64-.39,4-.62,2.63-.43,3.94-.7,2.61-.49,3.91-.78,2.61-.54,3.9-.86,2.59-.6,3.87-.94,2.57-.67,3.84-1,2.55-.76,3.74-1.19l-.8,1.48c-.34-1.73-.8-3.44-1-5.2-.13-.87-.27-1.74-.38-2.62l-.27-2.63c-.11-.88-.13-1.76-.18-2.64s-.12-1.76-.11-2.64c0-1.77,0-3.53.09-5.29s.25-3.51.4-5.26.41-3.49.72-5.22.63-3.46,1-5.18.77-3.42,1.25-5.11,1-3.37,1.49-5l.82-2.49.9-2.47c.61-1.64,1.24-3.27,1.92-4.88s1.4-3.2,2.14-4.78c1.49-3.16,3.11-6.26,4.82-9.29s3.55-6,5.55-8.88l.67.55-5.14,5.42c-1.71,1.82-3.44,3.61-5.12,5.45q-5.1,5.46-10.1,11l-10,11.12q-5,5.58-10,11.07C103,81.08,99.54,84.69,96.1,88.29L85.79,99.12,75.36,109.84l-5.26,5.31Q67.58,117.7,65,120.21Z" transform="translate(0 0)"/><polygon class="cls-2" points="69.64 115.23 76.08 120.05 69 116.25 69.64 115.23"/><polygon class="cls-2" points="67.68 117 71.38 120.05 67.04 118.01 67.68 117"/><polygon class="cls-2" points="71.54 112.71 80.2 119.86 70.82 113.67 71.54 112.71"/><polygon class="cls-2" points="73.31 110.75 84.31 119.86 72.58 111.71 73.31 110.75"/><polygon class="cls-2" points="75.66 109.19 85.39 117.31 74.93 110.14 75.66 109.19"/><polygon class="cls-2" points="77.62 106.44 90.88 117.11 76.9 107.4 77.62 106.44"/><polygon class="cls-2" points="79.98 104.68 94.8 117.11 79.24 105.63 79.98 104.68"/><polygon class="cls-2" points="82.14 102.53 98.92 116.92 81.39 103.47 82.14 102.53"/><polygon class="cls-2" points="83.9 100.18 104.11 117.11 83.15 101.12 83.9 100.18"/><polygon class="cls-2" points="85.87 97.83 106.85 115.94 85.11 98.76 85.87 97.83"/><polygon class="cls-2" points="88.42 95.48 109.2 113.39 87.66 96.41 88.42 95.48"/><polygon class="cls-2" points="90.77 93.13 111.36 110.84 90.01 94.06 90.77 93.13"/><polygon class="cls-2" points="92.94 90.39 112.14 107.9 92.15 91.3 92.94 90.39"/><polygon class="cls-2" points="95.7 88.25 113.91 106.14 94.88 89.13 95.7 88.25"/><polygon class="cls-2" points="97.06 85.89 116.06 103.2 96.27 86.79 97.06 85.89"/><polygon class="cls-2" points="99.81 83.93 117.04 100.26 99 84.83 99.81 83.93"/><polygon class="cls-2" points="101.58 81.59 118.42 97.9 100.76 82.47 101.58 81.59"/><polygon class="cls-2" points="103.34 79.63 120.38 96.34 102.52 80.51 103.34 79.63"/><polygon class="cls-2" points="105.3 77.86 121.55 93.59 104.49 78.75 105.3 77.86"/><polygon class="cls-2" points="106.85 76.08 123.12 90.85 106.07 77 106.85 76.08"/><polygon class="cls-2" points="109.01 73.73 125.28 88.5 108.22 74.64 109.01 73.73"/><polygon class="cls-2" points="111.16 71.19 127.43 85.95 110.38 72.1 111.16 71.19"/><polygon class="cls-2" points="113.12 68.63 127.04 81.24 112.34 69.55 113.12 68.63"/><polygon class="cls-2" points="115.67 66.48 128.22 78.11 114.89 67.39 115.67 66.48"/><polygon class="cls-2" points="119.39 61.58 129.59 70.86 118.62 62.5 119.39 61.58"/><polygon class="cls-2" points="117.42 64.12 128.8 74.19 116.67 65.05 117.42 64.12"/><polygon class="cls-2" points="121.94 58.83 130.76 66.94 121.17 59.76 121.94 58.83"/><polygon class="cls-2" points="124.68 56.29 131.94 63.21 123.91 57.2 124.68 56.29"/><polygon class="cls-2" points="126.84 53.74 133.12 59.88 126.06 54.65 126.84 53.74"/><polygon class="cls-2" points="129.39 51 134.49 56.16 128.61 51.91 129.39 51"/><polygon class="cls-2" points="131.35 49.04 135.47 53.41 130.57 49.95 131.35 49.04"/><polygon class="cls-2" points="133.49 46.87 136.84 50.28 132.75 47.81 133.49 46.87"/><polygon class="cls-2" points="135.65 44.32 138.41 47.34 134.89 45.26 135.65 44.32"/><polygon class="cls-2" points="137.8 41.97 140.17 44.59 137.06 42.91 137.8 41.97"/><polygon class="cls-2" points="139.92 39.78 141.94 41.85 139.25 40.78 139.92 39.78"/><path class="cls-2" d="M107.74,48.67c-.74,1.61-1.47,3.23-2.16,4.87l-2,4.91c-.64,1.65-1.27,3.31-1.84,5l-.87,2.5c-.29.83-.57,1.67-.82,2.51-.54,1.68-1,3.37-1.52,5.07-.25.84-.44,1.7-.66,2.55s-.46,1.7-.63,2.56l-.59,2.57-.51,2.58c-.17.87-.35,1.73-.47,2.6L95.23,89l-.13.79-.72,0c-3.3-.2-6.63-.36-9.95-.46-1.66,0-3.32-.05-5,0s-3.32.06-5,.14-3.31.19-5,.33c-.82.06-1.65.15-2.47.25s-1.65.18-2.46.31l-2.46.35-2.42.46c-.81.17-1.59.38-2.38.57s-1.53.49-2.29.73L50.8,93.67l3.35-2.84,6.5-5.51,6.54-5.45c2.19-1.81,4.35-3.65,6.57-5.43s4.4-3.58,6.63-5.33c4.44-3.55,9-7,13.45-10.46l6.82-5.12L104.1,51c1.15-.84,2.3-1.67,3.46-2.49l.37-.26Zm-.62.58c-.85.78-1.7,1.56-2.56,2.33l-3.18,2.84L95,60c-4.34,3.66-8.62,7.39-13,11q-3.27,2.73-6.59,5.39c-2.2,1.8-4.44,3.54-6.67,5.3L62,87l-6.73,5.23-.87-1.56c.84-.21,1.67-.46,2.51-.62s1.67-.3,2.51-.42l2.5-.29,2.51-.22c.83-.08,1.66-.1,2.5-.16l2.5-.12,5-.21,10-.31c3.33-.13,6.66-.24,10-.27l-.85.75.24-2.69c.07-.9.17-1.79.32-2.68l.43-2.67.56-2.63c.18-.88.41-1.75.65-2.62s.45-1.74.72-2.59l.8-2.57c.26-.86.59-1.7.88-2.54s.61-1.69.94-2.52.63-1.68,1-2.49c.7-1.65,1.44-3.28,2.2-4.89l1.18-2.41c.42-.79.84-1.58,1.27-2.36Q105.89,51.16,107.12,49.25Z" transform="translate(0 0)"/><polygon class="cls-2" points="59.99 87.05 62.56 89.87 59.24 87.98 59.99 87.05"/><polygon class="cls-2" points="62.13 85.07 67.06 89.48 61.42 86.04 62.13 85.07"/><polygon class="cls-2" points="64.71 83.53 70.59 89.28 63.93 84.45 64.71 83.53"/><polygon class="cls-2" points="66.83 81.93 75.69 89.08 66.13 82.91 66.83 81.93"/><polygon class="cls-2" points="69.37 79.78 81.18 88.89 68.68 80.75 69.37 79.78"/><polygon class="cls-2" points="71.55 77.83 85.1 88.89 70.82 78.78 71.55 77.83"/><polygon class="cls-2" points="73.7 76.06 89.21 88.69 72.97 77.02 73.7 76.06"/><polygon class="cls-2" points="76.45 73.91 94.41 88.89 75.71 74.86 76.45 73.91"/><polygon class="cls-2" points="79.41 71.96 94.7 85.56 78.64 72.89 79.41 71.96"/><polygon class="cls-2" points="82.35 69.81 94.9 81.24 81.57 70.73 82.35 69.81"/><polygon class="cls-2" points="84.12 67.66 95.88 78.7 83.33 68.56 84.12 67.66"/><polygon class="cls-2" points="86.68 65.51 96.86 75.56 85.87 66.4 86.68 65.51"/><polygon class="cls-2" points="89.02 63.54 98.03 72.03 88.24 64.45 89.02 63.54"/><polygon class="cls-2" points="91.97 61.59 98.82 68.7 91.16 62.48 91.97 61.59"/><polygon class="cls-2" points="94.31 59.82 99.99 65.56 93.52 60.73 94.31 59.82"/><polygon class="cls-2" points="96.25 58.24 100.97 62.82 95.5 59.17 96.25 58.24"/><polygon class="cls-2" points="98.45 56.11 101.95 60.27 97.62 56.98 98.45 56.11"/><polygon class="cls-2" points="99.99 54.13 103.33 57.72 99.22 55.05 99.99 54.13"/><polygon class="cls-2" points="102.77 52.2 104.5 54.78 101.92 53.05 102.77 52.2"/><path class="cls-2" d="M22.87,117.34l21-17.43L65.48,82.14,90.32,61.86l24.92-20.18c8-6.41,15.43-12.39,21.81-17.53l21.35-17-21,17.43L115.79,42.36,91,62.64,66,82.81l-21.8,17.53Z" transform="translate(0 0)"/><path class="cls-2" d="M39.33,103.28a32.7,32.7,0,0,1,2.25-7.74,50.21,50.21,0,0,1,3.66-7.2c.66-1.18,1.46-2.26,2.19-3.4s1.57-2.2,2.4-3.26a73.38,73.38,0,0,1,5.32-6.09C57,73.65,59,71.81,60.9,70l5.81-5.54c1.94-1.85,4-3.61,6-5.4s4-3.53,6.1-5.24c4.15-3.39,8.42-6.66,12.81-9.74q3.3-2.3,6.69-4.46c2.25-1.46,4.56-2.82,6.89-4.15s4.73-2.54,7.16-3.68a75.59,75.59,0,0,1,7.44-3.08,66.69,66.69,0,0,1,7.75-2.24,51.57,51.57,0,0,1,8-1l1.75-.09-1.36,1.14q-11.85,9.89-23.81,19.62l-12,9.74-12,9.64c-4,3.21-8,6.45-12.06,9.61L64,84.57,51.76,94c-4.07,3.14-8.18,6.23-12.27,9.35l-.19.15Zm.27-.27c3.85-3.25,7.67-6.54,11.53-9.77L63,83.36l11.9-9.8c4-3.29,8-6.49,12-9.73l12-9.68,12.07-9.59Q123,35,135.2,25.51l.38,1a48.47,48.47,0,0,0-7.88.77,56.61,56.61,0,0,0-7.7,2,75.31,75.31,0,0,0-7.41,3c-2.44,1.08-4.78,2.37-7.1,3.68s-4.58,2.74-6.79,4.23-4.37,3.06-6.5,4.66C88,48.11,83.83,51.5,79.83,55c-2,1.74-4,3.5-6,5.29l-5.9,5.4L62,71.16c-2,1.82-3.92,3.64-5.79,5.51s-3.66,3.83-5.38,5.85c-.85,1-1.65,2.07-2.47,3.12s-1.57,2.13-2.26,3.26a57.57,57.57,0,0,0-3.93,6.92A36.8,36.8,0,0,0,39.6,103Z" transform="translate(0 0)"/><polygon class="cls-2" points="58.35 73.45 61.97 77.52 57.55 74.34 58.35 73.45"/><polygon class="cls-2" points="55.84 76.43 57.66 79.28 54.96 77.24 55.84 76.43"/><polygon class="cls-2" points="53.24 78.92 55.5 81.64 52.47 79.84 53.24 78.92"/><polygon class="cls-2" points="60.12 71.68 63.73 75.76 59.31 72.58 60.12 71.68"/><polygon class="cls-2" points="62.18 69.43 66.48 74.19 61.37 70.32 62.18 69.43"/><polygon class="cls-2" points="66.39 66 70 70.07 65.58 66.89 66.39 66"/><polygon class="cls-2" points="68.55 64.64 73.92 70.46 67.73 65.51 68.55 64.64"/><polygon class="cls-2" points="90.9 45.03 96.27 50.87 90.08 45.91 90.9 45.03"/><polygon class="cls-2" points="86.38 48.94 89.21 52.24 85.58 49.84 86.38 48.94"/><polygon class="cls-2" points="88.53 46.98 91.37 50.28 87.74 47.89 88.53 46.98"/><polygon class="cls-2" points="100.88 38.36 103.72 41.65 100.09 39.26 100.88 38.36"/><polygon class="cls-2" points="96.76 40.71 99.6 44.01 95.97 41.61 96.76 40.71"/><polygon class="cls-2" points="77.56 56 80.39 59.29 76.76 56.9 77.56 56"/><polygon class="cls-2" points="103.46 37.01 104.89 39.3 102.61 37.86 103.46 37.01"/><polygon class="cls-2" points="84.42 50.12 87.25 53.41 83.62 51.02 84.42 50.12"/><polygon class="cls-2" points="82.26 52.47 85.1 55.77 81.47 53.37 82.26 52.47"/><path class="cls-3" d="M215.63,149.3a1.17,1.17,0,0,1-1.18-1.17V22.44a1.18,1.18,0,0,1,2.36,0V148.13A1.17,1.17,0,0,1,215.63,149.3Z" transform="translate(0 0)"/><path class="cls-2" d="M215.63,149.39a1.19,1.19,0,0,1-.75-.24,1.23,1.23,0,0,1-.5-.81c0-.39,0-.79,0-1.27,0-1.9,0-4.68-.06-8.21s-.14-7.84-.23-12.77-.25-10.48-.32-16.55-.14-12.63-.07-19.58.19-14.28.29-21.86.19-15.41.21-23.37q0-6-.06-12c0-2-.05-4-.08-6.05l0-3v-.76a2.88,2.88,0,0,1,.06-.88,1.64,1.64,0,0,1,1.61-1.21,1.69,1.69,0,0,1,1.6,1.2,1.89,1.89,0,0,1,.07.51v.38l0,.76,0,3,.09,6.05q.06,6,.12,12c.05,8,.1,15.79.14,23.37s0,14.91,0,21.86-.09,13.52-.17,19.58-.25,11.63-.35,16.55-.22,9.23-.22,12.77-.06,6.31-.07,8.21c0,.48,0,.88,0,1.27a1.27,1.27,0,0,1-1.26,1Zm0-.18a1,1,0,0,0,.64-.21,1.07,1.07,0,0,0,.42-.69c0-.33,0-.78,0-1.24,0-1.9,0-4.68-.06-8.21s-.14-7.84-.23-12.77-.21-10.48-.34-16.55-.19-12.63-.17-19.58-.07-14.28,0-21.86.1-15.41.14-23.37q.06-6,.12-12l.09-6.05.05-3V22.49a.75.75,0,0,0,0-.23.66.66,0,0,0-.65-.5.7.7,0,0,0-.65.49,2,2,0,0,0,0,.62v.76l0,3c0,2-.05,4-.08,6.05q0,6-.06,12c0,8,.06,15.79.21,23.37s.29,14.91.29,21.86,0,13.52-.07,19.58-.23,11.63-.32,16.55-.21,9.23-.23,12.77,0,6.31-.06,8.21c0,.46,0,.91,0,1.23a1,1,0,0,0,.42.7A1,1,0,0,0,215.63,149.21Z" transform="translate(0 0)"/><path class="cls-2" d="M231.32,45.37l3.27-1.3.15,0,0,.16,1.94,10c.65,3.35,1.34,6.68,2,10s1.39,6.67,2.13,10c.36,1.67.75,3.32,1.13,5l1.16,5,1.18,5,1.25,5c.4,1.66.86,3.29,1.3,4.93s.88,3.29,1.39,4.92,1,3.26,1.5,4.87l1.68,4.82,1.93,4.72c.7,1.55,1.5,3,2.27,4.56l.11.23-.24.05c-6.41,1.3-12.83,2.56-19.24,3.9l-9.61,2-9.59,2.08h0l-.64.13v-.67q-.06-10,0-20l.11-20,.24-20c.12-6.67.22-13.33.39-20v-.09l.07,0,2.93-1,0,.11-2.88,1.14.08-.11c.12,6.66.18,13.33.25,20l.08,20,0,20q0,10-.18,20l-.64-.53h0l9.66-1.74,9.65-1.82c6.43-1.2,12.84-2.49,19.27-3.73l-.13.27c-.75-1.53-1.57-3-2.3-4.58l-2-4.72-1.77-4.8c-.58-1.61-1.08-3.24-1.63-4.86s-1-3.25-1.52-4.88-1-3.27-1.43-4.92l-1.33-4.94-1.23-5c-.42-1.65-.79-3.32-1.16-5s-.74-3.33-1.08-5c-.71-3.34-1.38-6.68-2-10-1.24-6.71-2.42-13.42-3.36-20.18l.18.11-3.33,1.16Z" transform="translate(0 0)"/><line class="cls-4" x1="232.54" y1="47.8" x2="235.03" y2="46.94"/><polygon class="cls-2" points="232.35 47.23 235.03 46.95 232.74 48.37 232.35 47.23"/><line class="cls-4" x1="216.81" y1="53.22" x2="220.66" y2="51.89"/><polygon class="cls-2" points="216.61 52.65 220.66 51.89 217 53.78 216.61 52.65"/><line class="cls-4" x1="231.33" y1="50.57" x2="235.03" y2="49.3"/><polygon class="cls-2" points="231.13 50.01 235.03 49.3 231.52 51.14 231.13 50.01"/><line class="cls-4" x1="216.81" y1="55.57" x2="221.01" y2="54.12"/><polygon class="cls-2" points="216.61 55 221.01 54.12 217 56.14 216.61 55"/><line class="cls-4" x1="230.09" y1="53.48" x2="235.43" y2="51.65"/><polygon class="cls-2" points="229.9 52.92 235.43 51.65 230.29 54.05 229.9 52.92"/><line class="cls-4" x1="217.2" y1="57.92" x2="221.45" y2="56.46"/><polygon class="cls-2" points="217 57.35 221.45 56.46 217.39 58.49 217 57.35"/><line class="cls-4" x1="228.98" y1="56.28" x2="235.62" y2="54"/><polygon class="cls-2" points="228.79 55.72 235.62 54 229.18 56.85 228.79 55.72"/><line class="cls-4" x1="217.39" y1="60.27" x2="221.85" y2="58.74"/><polygon class="cls-2" points="217.2 59.7 221.85 58.74 217.59 60.84 217.2 59.7"/><line class="cls-4" x1="227.82" y1="59.4" x2="236.99" y2="56.16"/><polygon class="cls-2" points="227.62 58.83 236.99 56.16 228.02 59.96 227.62 58.83"/><line class="cls-4" x1="217" y1="63.21" x2="222.44" y2="61.29"/><polygon class="cls-2" points="216.8 62.65 222.44 61.29 217.2 63.78 216.8 62.65"/><line class="cls-4" x1="226.8" y1="62.43" x2="236.99" y2="58.9"/><polygon class="cls-2" points="226.6 61.87 236.99 58.9 227 63 226.6 61.87"/><line class="cls-4" x1="217.2" y1="65.76" x2="223.14" y2="63.7"/><polygon class="cls-2" points="217 65.19 223.14 63.7 217.4 66.33 217 65.19"/><line class="cls-4" x1="217" y1="69.29" x2="237.78" y2="61.84"/><polygon class="cls-2" points="216.8 68.72 237.78 61.84 217.21 69.85 216.8 68.72"/><line class="cls-4" x1="217" y1="71.84" x2="238.37" y2="64.39"/><polygon class="cls-2" points="216.81 71.27 238.37 64.39 217.2 72.4 216.81 71.27"/><line class="cls-4" x1="217.39" y1="74.39" x2="235.62" y2="68.11"/><polygon class="cls-2" points="217.2 73.82 235.62 68.11 217.59 74.95 217.2 73.82"/><line class="cls-4" x1="217.2" y1="76.93" x2="235.43" y2="70.66"/><polygon class="cls-2" points="217 76.36 235.43 70.66 217.4 77.5 217 76.36"/><line class="cls-4" x1="217.39" y1="80.46" x2="233.27" y2="75.17"/><polygon class="cls-2" points="217.21 79.89 233.27 75.17 217.59 81.03 217.21 79.89"/><line class="cls-4" x1="217.39" y1="83.79" x2="228.37" y2="80.46"/><polygon class="cls-2" points="217.22 83.22 228.37 80.46 217.57 84.37 217.22 83.22"/><line class="cls-4" x1="217.56" y1="87.54" x2="228.78" y2="84.39"/><polygon class="cls-2" points="217.4 86.96 228.78 84.39 217.72 88.12 217.4 86.96"/><line class="cls-4" x1="216.98" y1="90.25" x2="228.2" y2="87.1"/><polygon class="cls-2" points="216.82 89.67 228.2 87.1 217.14 90.83 216.82 89.67"/><line class="cls-4" x1="217.56" y1="93.23" x2="228.78" y2="90.07"/><polygon class="cls-2" points="217.4 92.65 228.78 90.07 217.72 93.8 217.4 92.65"/><line class="cls-4" x1="216.98" y1="95.94" x2="228.2" y2="92.78"/><polygon class="cls-2" points="216.82 95.36 228.2 92.78 217.14 96.51 216.82 95.36"/><line class="cls-4" x1="216.98" y1="99.27" x2="228.2" y2="96.12"/><polygon class="cls-2" points="216.82 98.69 228.2 96.12 217.14 99.85 216.82 98.69"/><line class="cls-4" x1="217.56" y1="102.24" x2="228.78" y2="99.09"/><polygon class="cls-2" points="217.4 101.66 228.78 99.09 217.72 102.82 217.4 101.66"/><line class="cls-4" x1="216.98" y1="104.95" x2="228.2" y2="101.8"/><polygon class="cls-2" points="216.82 104.37 228.2 101.8 217.14 105.53 216.82 104.37"/><line class="cls-4" x1="217.76" y1="107.53" x2="228.98" y2="104.38"/><polygon class="cls-2" points="217.59 106.95 228.98 104.38 217.92 108.11 217.59 106.95"/><line class="cls-4" x1="217.18" y1="110.24" x2="228.4" y2="107.09"/><polygon class="cls-2" points="217.02 109.67 228.4 107.09 217.34 110.82 217.02 109.67"/><line class="cls-4" x1="217.18" y1="113.58" x2="228.4" y2="110.42"/><polygon class="cls-2" points="217.02 113 228.4 110.42 217.34 114.15 217.02 113"/><line class="cls-4" x1="217.76" y1="116.55" x2="225.82" y2="114.37"/><polygon class="cls-2" points="217.6 115.97 225.82 114.37 217.91 117.13 217.6 115.97"/><line class="cls-4" x1="217.18" y1="119.26" x2="229.55" y2="115.94"/><polygon class="cls-2" points="217.02 118.68 229.55 115.94 217.33 119.84 217.02 118.68"/><line class="cls-4" x1="217.18" y1="122.4" x2="228.4" y2="119.24"/><polygon class="cls-2" points="217.02 121.82 228.4 119.24 217.34 122.97 217.02 121.82"/><line class="cls-4" x1="216.78" y1="125.37" x2="224.84" y2="123.19"/><polygon class="cls-2" points="216.62 124.79 224.84 123.19 216.94 125.95 216.62 124.79"/><line class="cls-4" x1="217.18" y1="128.08" x2="230.92" y2="124.95"/><polygon class="cls-2" points="217.04 127.49 230.92 124.95 217.31 128.66 217.04 127.49"/><path class="cls-2" d="M255.46,123s-.56-.82-1.49-2.29c-.48-.73-1-1.64-1.65-2.68s-1.32-2.21-2.07-3.49-1.55-2.7-2.35-4.2-1.59-3.13-2.43-4.79-1.71-3.39-2.67-5.09l-1.47-2.56c-.51-.85-1-1.7-1.54-2.55-1-1.69-2.06-3.4-3-5.09l-2.87-5c-1.85-3.23-3.5-6.3-4.86-9s-2.48-4.87-3.25-6.43l-1.17-2.47.11-.06,1.48,2.3c.92,1.47,2.24,3.58,3.75,6.15s3.26,5.58,5,8.86l2.7,5.06c.92,1.73,1.82,3.5,2.71,5.28l1.35,2.65,1.4,2.6c.94,1.72,1.93,3.37,2.91,5s1.94,3.12,2.79,4.6,1.61,2.9,2.32,4.21,1.33,2.53,1.87,3.61,1,2,1.4,2.81c.75,1.57,1.16,2.48,1.16,2.48Z" transform="translate(0 0)"/><path class="cls-2" d="M224.71,67.43s0,1.29-.13,3.54c0,1.13-.14,2.5-.23,4.06s-.23,3.34-.38,5.26-.32,4-.56,6.21-.56,4.52-.87,6.91-.63,4.87-.87,7.4c-.11,1.26-.23,2.53-.34,3.81s-.19,2.56-.29,3.85c-.18,2.57-.38,5.13-.61,7.66s-.48,5-.72,7.41-.5,4.72-.8,6.92-.56,4.27-.86,6.18-.54,3.66-.84,5.21-.51,2.9-.75,4l-.77,3.46-.12,0s.15-1.28.42-3.51.6-5.44,1-9.28c.2-1.91.43-4,.66-6.19s.5-4.52.81-6.91.59-4.87.9-7.38.65-5.07,1-7.62c.16-1.28.33-2.56.49-3.83l.42-3.8c.26-2.52.46-5,.6-7.42s.28-4.74.46-6.95.42-4.28.62-6.2.38-3.68.59-5.24.35-2.91.51-4c.3-2.23.51-3.51.51-3.51Z" transform="translate(0 0)"/><path class="cls-2" d="M216.69,22l1.95,3.67c.58,1.07,1.15,2.15,1.76,3.2l.91,1.58c.31.52.6,1,.92,1.56q.93,1.56,1.92,3.06c.32.51.67,1,1,1.5s.67,1,1,1.47l1.06,1.44,1.12,1.39c.36.48.76.91,1.15,1.36s.77.9,1.19,1.32A14.86,14.86,0,0,0,232,44.78L233.3,46l.47.41-.21.46c-.77,1.71-1.59,3.39-2.33,5.11s-1.45,3.45-2.12,5.2-1.31,3.5-1.91,5.27l-1.79,5.33-.51,1.48-.91-1.3a5.67,5.67,0,0,1-.45-.75c-.13-.23-.23-.46-.34-.69-.21-.45-.39-.91-.57-1.37-.35-.92-.65-1.85-.93-2.78s-.53-1.86-.76-2.79-.47-1.88-.67-2.82q-.65-2.82-1.16-5.65l-.47-2.84c-.16-.95-.3-1.9-.41-2.85-.23-1.9-.49-3.8-.65-5.71s-.36-3.81-.48-5.72-.23-3.82-.3-5.74c-.05-.95-.05-1.91-.08-2.87s0-1.91,0-2.87Zm.24.46c.19.94.37,1.88.53,2.83s.36,1.88.5,2.82c.29,1.89.65,3.77.95,5.65L220.72,45l.91,5.62c.16.93.3,1.87.45,2.81l.49,2.8q.51,2.79,1.16,5.54c.22.91.46,1.81.71,2.71.13.44.27.89.41,1.31.08.21.15.44.23.63s.19.44.22.51l-1.41.19L226.21,62c.77-1.7,1.51-3.42,2.2-5.16s1.38-3.47,2-5.24,1.19-3.55,1.78-5.33l.27.88-1.56-1.09a18.79,18.79,0,0,1-1.48-1.19l-.72-.61-.66-.68c-.43-.46-.9-.88-1.29-1.37l-1.19-1.46c-.39-.49-.74-1-1.1-1.52s-.7-1-1-1.55-.69-1-1-1.59c-.62-1.07-1.21-2.16-1.77-3.26-.28-.55-.53-1.12-.8-1.68s-.52-1.12-.75-1.69a51,51,0,0,1-2.43-7Z" transform="translate(0 0)"/><path class="cls-2" d="M106.89,116.89c-2,3.34-4,6.62-6,9.93l-3.06,4.92-3.07,4.92-.7-1.24c2.67-.17,5.34-.34,8-.47l8-.42,8-.37,8-.33c2.68-.07,5.35-.17,8-.22l8-.15c5.34-.11,10.69-.17,16-.32l-.34.68a28.43,28.43,0,0,1-2.31-5.15c-.65-1.75-1.1-3.56-1.6-5.35s-.87-3.62-1.13-5.46l-.47-2.74c-.15-.92-.23-1.85-.35-2.77l-.34-2.76c-.1-.93-.15-1.85-.23-2.78-.12-1.85-.32-3.71-.33-5.56l-.15-5.58.1-5.57c0-1.86.14-3.71.27-5.57L151.7,79l.62-5.54c.23-1.84.39-3.69.68-5.53l.87-5.5c.31-1.83.54-3.68.9-5.5Q155.83,51.44,157,46l0,.23c.1-2.84.19-5.68.31-8.52l2.33.74c-2.7,4-5.38,8.13-8.12,12.16l-8.17,12.13L135,74.78l-4.18,6-4.22,6-.2-.14,3.79-6.26L134,74.13l7.72-12.42,7.83-12.36c2.59-4.13,5.25-8.21,7.89-12.31l2.43-3.79-.11,4.53c-.07,2.84-.17,5.68-.28,8.52v.11l0,.13Q158.36,52,157.2,57.36c-.39,1.8-.65,3.62-1,5.44l-.95,5.44c-.32,1.82-.51,3.65-.77,5.47l-.74,5.47-.53,5.5L153,87.43c-.09.92-.11,1.84-.18,2.75l-.33,5.52-.08,5.52c-.06,1.85.07,3.68.13,5.52,0,.92.05,1.85.12,2.76l.25,2.75c.1.92.16,1.84.28,2.75l.42,2.73c.24,1.83.71,3.61,1.08,5.41a53.4,53.4,0,0,0,1.61,5.27,24.88,24.88,0,0,0,2.3,4.92l.42.64-.76,0c-5.34.29-10.67.67-16,1l-8,.51c-2.67.17-5.34.3-8,.44l-8,.34-8,.29-8,.24c-2.67.09-5.34.14-8,.19l-1.58,0,.87-1.27L96.72,131l3.28-4.77c2.23-3.16,4.42-6.34,6.69-9.47Z" transform="translate(0 0)"/><polygon class="cls-2" points="155.89 129.67 124.1 131.22 155.81 128.47 155.89 129.67"/><polygon class="cls-2" points="155.5 126.73 123.71 128.28 155.42 125.53 155.5 126.73"/><polygon class="cls-2" points="154.52 123.79 127.43 125.15 154.44 122.59 154.52 123.79"/><polygon class="cls-2" points="154.13 120.65 129.39 121.62 154.05 119.45 154.13 120.65"/><polygon class="cls-2" points="153.54 114.18 131.74 115.15 153.46 112.98 153.54 114.18"/><polygon class="cls-2" points="152.35 111.64 133.7 112.02 152.29 110.44 152.35 111.64"/><polygon class="cls-2" points="152.16 108.11 136.45 108.29 152.1 106.91 152.16 108.11"/><polygon class="cls-2" points="151.77 105.17 136.06 105.35 151.71 103.97 151.77 105.17"/><polygon class="cls-2" points="151.77 101.05 136.06 101.24 151.71 99.85 151.77 101.05"/><polygon class="cls-2" points="151.76 98.31 138.8 98.3 151.71 97.11 151.76 98.31"/><polygon class="cls-2" points="152.54 94.98 140.76 94.77 152.5 93.78 152.54 94.98"/><polygon class="cls-2" points="152.76 91.64 141.54 91.83 152.67 90.45 152.76 91.64"/><polygon class="cls-2" points="152.76 88.9 141.54 89.08 152.67 87.7 152.76 88.9"/><polygon class="cls-2" points="153.15 86.16 144.48 86.14 153.07 84.96 153.15 86.16"/><polygon class="cls-2" points="152.76 82.82 144.09 82.81 152.68 81.63 152.76 82.82"/><polygon class="cls-2" points="153.15 80.08 144.48 80.07 153.07 78.88 153.15 80.08"/><polygon class="cls-2" points="153.35 77.33 146.05 77.32 153.25 76.14 153.35 77.33"/><polygon class="cls-2" points="153.94 74.2 146.64 74.19 153.84 73 153.94 74.2"/><polygon class="cls-2" points="154.33 71.65 147.03 71.64 154.23 70.45 154.33 71.65"/><polygon class="cls-2" points="154.63 66.8 149.24 66.69 154.52 65.6 154.63 66.8"/><polygon class="cls-2" points="154.62 63.66 146.88 63.55 154.54 62.47 154.62 63.66"/><polygon class="cls-2" points="158.75 46.81 153.35 46.7 158.64 45.61 158.75 46.81"/><polygon class="cls-2" points="158.57 44.45 154.33 44.35 158.43 43.26 158.57 44.45"/><polygon class="cls-2" points="158.16 49.36 152.76 49.25 158.05 48.16 158.16 49.36"/><polygon class="cls-2" points="156.97 51.91 150.41 51.8 156.88 50.71 156.97 51.91"/><polygon class="cls-2" points="156.97 54.26 149.24 54.15 156.89 53.06 156.97 54.26"/><polygon class="cls-2" points="156.18 57.39 148.45 57.28 156.11 56.2 156.18 57.39"/><polygon class="cls-2" points="155.2 60.14 147.47 60.03 155.13 58.94 155.2 60.14"/><polygon class="cls-2" points="153.15 117.32 130.96 118.09 153.07 116.12 153.15 117.32"/><path class="cls-3" d="M159.58,149.3a1.17,1.17,0,0,1-1.18-1.17V1.67a1.18,1.18,0,1,1,2.35,0V148.13A1.17,1.17,0,0,1,159.58,149.3Z" transform="translate(0 0)"/><path class="cls-2" d="M159.57,149.39a1.2,1.2,0,0,1-.84-.32,1.29,1.29,0,0,1-.43-1V146.6c0-2.2,0-5.42-.06-9.53s-.14-9.09-.23-14.81-.25-12.17-.31-19.21-.14-14.66-.07-22.73.18-16.57.28-25.36.19-17.89.21-27.13c0-4.62,0-9.28-.06-13.95,0-2.34-.05-4.68-.07-7l0-3.52,0-1.78A1.66,1.66,0,0,1,159.6,0a1.69,1.69,0,0,1,1.66,1.54l0,1.8.05,3.52.09,7c0,4.67.08,9.33.12,13.95,0,9.24.09,18.33.14,27.13s0,17.3,0,25.36-.08,15.69-.17,22.73-.24,13.49-.34,19.21-.22,10.7-.23,14.81-.05,7.33-.06,9.53c0,.55,0,1,0,1.46a1.29,1.29,0,0,1-.43,1A1.23,1.23,0,0,1,159.57,149.39Zm0-.18a1,1,0,0,0,.72-.28,1.1,1.1,0,0,0,.35-.87c0-.42,0-.91,0-1.46,0-2.2,0-5.42-.07-9.53s-.14-9.09-.23-14.81-.21-12.17-.34-19.21-.18-14.66-.17-22.73-.06-16.57,0-25.36.09-17.89.14-27.13c0-4.62.08-9.28.12-13.95l.09-7,0-3.52,0-1.72a.67.67,0,0,0-.68-.63.7.7,0,0,0-.67.62l0,1.73,0,3.52c0,2.34-.05,4.68-.07,7,0,4.67,0,9.33-.06,13.95,0,9.24.06,18.33.21,27.13s.28,17.3.28,25.36,0,15.69-.07,22.73-.22,13.49-.31,19.21-.21,10.7-.23,14.81-.05,7.33-.06,9.53c0,1.09-.14,2,.35,2.33A1,1,0,0,0,159.58,149.21Z" transform="translate(0 0)"/><path class="cls-2" d="M174.65,32.82l5.53-2.88.18-.09,0,.2,3.37,13L187.24,56q1.74,6.47,3.57,12.92l3.72,12.87,1.92,6.42,2,6.4c.66,2.13,1.35,4.26,2.05,6.38s1.42,4.23,2.17,6.33,1.53,4.2,2.34,6.28,1.69,4.13,2.61,6.16,1.9,4,3,6a27.33,27.33,0,0,0,3.91,5.35l.37.37-.52,0-53.49,2.41-.6,0v-.6c0-7.82,0-15.63.09-23.45l.09-11.72.11-11.72.34-23.45.18-11.72.25-11.72v-.07l0,0,2.18-1,.06.11-2.15,1.11.06-.08.1,11.72,0,11.73.05,23.44,0,11.73-.05,11.72c0,7.81-.14,15.63-.21,23.44l-.59-.57L214.35,131l-.15.39a27.8,27.8,0,0,1-3.93-5.49c-.52-1-1.07-2-1.58-3s-1-2-1.47-3c-.93-2-1.81-4.09-2.67-6.16s-1.66-4.15-2.45-6.25-1.55-4.19-2.31-6.3-1.48-4.22-2.19-6.34q-2.15-6.36-4.06-12.79c-2.62-8.56-4.92-17.21-7.19-25.85-1.14-4.33-2.19-8.68-3.25-13s-2.06-8.7-3-13.07l.24.11-5.62,2.69Z" transform="translate(0 0)"/><polygon class="cls-2" points="161.21 129.74 189.37 129.07 161.27 130.94 161.21 129.74"/><polygon class="cls-2" points="161.41 127 189.56 126.32 161.47 128.2 161.41 127"/><polygon class="cls-2" points="161.41 124.84 184.66 124.17 161.47 126.04 161.41 124.84"/><polygon class="cls-2" points="161.41 122.1 182.7 121.62 161.47 123.3 161.41 122.1"/><polygon class="cls-2" points="160.82 119.16 181.33 118.68 160.88 120.36 160.82 119.16"/><polygon class="cls-2" points="161.41 116.22 181.92 115.74 161.47 117.42 161.41 116.22"/><polygon class="cls-2" points="161.99 113.28 175.06 113.19 162.06 114.48 161.99 113.28"/><polygon class="cls-2" points="162.2 109.55 173.69 109.66 162.25 110.75 162.2 109.55"/><polygon class="cls-2" points="162.19 105.83 173.49 105.74 162.26 107.03 162.19 105.83"/><polygon class="cls-2" points="161.29 102.99 172.9 102.61 161.39 104.19 161.29 102.99"/><polygon class="cls-2" points="161.09 98.48 173.29 97.91 161.2 99.68 161.09 98.48"/><polygon class="cls-2" points="161.3 95.34 173.49 95.11 161.38 96.54 161.3 95.34"/><polygon class="cls-2" points="161.1 91.03 173.78 90.7 161.19 92.23 161.1 91.03"/><polygon class="cls-2" points="161.49 88.29 174.08 87.91 161.58 89.49 161.49 88.29"/><polygon class="cls-2" points="161.3 85.15 174.52 84.97 161.38 86.35 161.3 85.15"/><polygon class="cls-2" points="161.69 82.21 174.67 81.88 161.78 83.41 161.69 82.21"/><polygon class="cls-2" points="160.26 79.76 174.96 79.23 160.36 80.96 160.26 79.76"/><polygon class="cls-2" points="160.55 76.68 174.37 75.95 160.66 77.87 160.55 76.68"/><polygon class="cls-2" points="161.01 73.74 181.13 73.01 161.09 74.93 161.01 73.74"/><polygon class="cls-2" points="161.15 71.53 188.39 70.27 161.23 72.73 161.15 71.53"/><polygon class="cls-2" points="161.3 68.89 189.56 67.52 161.38 70.08 161.3 68.89"/><polygon class="cls-2" points="161.51 65.55 189.17 64.78 161.57 66.75 161.51 65.55"/><polygon class="cls-2" points="161.31 63.2 189.17 62.23 161.37 64.4 161.31 63.2"/><polygon class="cls-2" points="160.91 60.46 188 59.49 160.98 61.66 160.91 60.46"/><polygon class="cls-2" points="168.71 57.19 187.21 56.55 168.79 58.39 168.71 57.19"/><polygon class="cls-2" points="160.91 57.71 166.26 57.95 160.99 58.91 160.91 57.71"/><polygon class="cls-2" points="170.66 53.94 186.62 53.8 170.72 55.13 170.66 53.94"/><polygon class="cls-2" points="160.92 54.38 165.77 54.76 160.97 55.58 160.92 54.38"/><polygon class="cls-2" points="172.65 50.95 184.66 50.87 172.72 52.15 172.65 50.95"/><polygon class="cls-2" points="160.72 51.64 165.28 51.98 160.79 52.84 160.72 51.64"/><polygon class="cls-2" points="174.62 47.76 184.47 47.53 174.72 48.96 174.62 47.76"/><polygon class="cls-2" points="161.29 48.89 165 49.18 161.39 50.09 161.29 48.89"/><polygon class="cls-2" points="176.71 44.53 183.88 44.4 176.84 45.73 176.71 44.53"/><polygon class="cls-2" points="161.08 46.15 164.61 46.39 161.21 47.35 161.08 46.15"/><polygon class="cls-2" points="178.5 41.86 183.88 42.05 178.59 43.06 178.5 41.86"/><polygon class="cls-2" points="161.29 43.21 164.38 43.57 161.39 44.41 161.29 43.21"/><polygon class="cls-2" points="179.42 38.66 182.9 38.91 179.54 39.85 179.42 38.66"/><polygon class="cls-2" points="161.47 40.47 164 40.82 161.6 41.66 161.47 40.47"/><polygon class="cls-2" points="177.46 36.15 181.92 36.36 177.56 37.35 177.46 36.15"/><polygon class="cls-2" points="175.49 33.8 181.72 33.81 175.61 35 175.49 33.8"/><path class="cls-2" d="M161.75,6.22s.85.17,2.32.51c.74.16,1.62.41,2.64.66s2.16.58,3.41.92,2.59.75,4,1.21,2.88,1,4.4,1.56,3.1,1.11,4.72,1.59l2.46.72,2.5.66c1.67.41,3.34.86,5,1.31L198,16.73c3.1.91,6,1.84,8.41,2.69s4.47,1.58,5.89,2.1,2.21.87,2.21.87l0,.11s-.85-.17-2.32-.52-3.57-.87-6.06-1.56-5.39-1.5-8.47-2.5l-4.73-1.55c-1.61-.54-3.24-1.1-4.86-1.7l-2.44-.85L183.12,13c-1.62-.51-3.23-.94-4.8-1.33s-3.09-.76-4.51-1.17-2.76-.85-4-1.24-2.35-.78-3.34-1.15-1.85-.65-2.56-.93c-1.41-.54-2.21-.88-2.21-.88Z" transform="translate(0 0)"/><path class="cls-2" d="M161.76,6.22s.87.46,2.36,1.31c.75.42,1.63,1,2.66,1.56s2.16,1.31,3.41,2.09,2.58,1.63,4,2.56,2.81,2,4.31,3,3,2.16,4.65,3.2l2.45,1.55,2.51,1.51c1.68,1,3.35,2,5,3l4.77,3c3.1,2,5.93,3.86,8.33,5.54s4.39,3.1,5.77,4.1,2.16,1.62,2.16,1.62l-.07.1s-.86-.47-2.35-1.32-3.59-2.08-6.08-3.62-5.39-3.34-8.44-5.38L192.49,27c-1.59-1.09-3.19-2.21-4.77-3.35l-2.4-1.68-2.4-1.62c-1.61-1.06-3.22-2-4.81-3s-3.11-1.82-4.53-2.71-2.73-1.79-4-2.6-2.32-1.58-3.28-2.28-1.82-1.28-2.51-1.8c-1.37-1-2.14-1.62-2.14-1.62Z" transform="translate(0 0)"/><path class="cls-2" d="M214,54.83s-.89-.69-2.41-1.94c-.77-.62-1.67-1.41-2.72-2.29s-2.22-1.9-3.49-3-2.62-2.33-4-3.66-2.85-2.77-4.36-4.25-3.07-3-4.72-4.48L189.8,33l-2.57-2.2c-1.72-1.45-3.43-2.91-5.09-4.37l-4.87-4.32c-3.15-2.8-6-5.49-8.46-7.84s-4.44-4.31-5.84-5.7l-2.16-2.22.08-.09,2.41,1.95c1.51,1.26,3.68,3.06,6.22,5.29s5.5,4.82,8.59,7.69c1.53,1.45,3.12,2.94,4.74,4.45s3.23,3.09,4.83,4.68l2.42,2.34,2.44,2.29c1.63,1.5,3.28,2.92,4.9,4.28s3.19,2.66,4.64,3.94,2.78,2.54,4,3.69,2.35,2.22,3.33,3.19,1.84,1.79,2.53,2.49c1.38,1.41,2.15,2.23,2.15,2.23Z" transform="translate(0 0)"/><path class="cls-2" d="M161.85,6.25c.55,1.51,1.16,3,1.77,4.49s1.26,2.95,1.94,4.4c.34.73.67,1.46,1,2.18l1.06,2.15,1.11,2.12c.37.71.78,1.4,1.15,2.1.74,1.42,1.61,2.76,2.4,4.14s1.67,2.72,2.56,4c.44.66.84,1.35,1.29,2l1.37,2c.89,1.32,1.92,2.55,2.87,3.84l.28.38-.22.32c-.59.83-1.2,1.66-1.76,2.5s-1.16,1.68-1.72,2.54c-1.12,1.69-2.22,3.42-3.29,5.15l-1.59,2.61-1.56,2.64-3.09,5.28L166.35,63l-.45-2.18c-.93-4.48-1.65-9-2.35-13.51-.34-2.26-.71-4.51-1-6.78s-.57-4.54-.8-6.81-.43-4.55-.57-6.84-.25-4.57-.35-6.86l0-3.44c0-1.15.05-2.3.07-3.45s.16-2.3.24-3.44.32-2.28.49-3.41l.07-.46Zm0,1.23V8a16.07,16.07,0,0,0,0,1.7c.06,1.14.09,2.26.18,3.4s.16,2.26.27,3.39l.35,3.39c.48,4.52,1.05,9,1.59,13.54.14,1.13.31,2.25.43,3.38l.41,3.39.8,6.78c.55,4.52,1.16,9,1.67,13.56L166,60.21l3.52-5,1.76-2.51L173,50.16q1.69-2.55,3.32-5.14c.55-.86,1.07-1.74,1.6-2.61s1-1.76,1.54-2.64l.06.7c-1.09-1.21-2.26-2.36-3.29-3.62s-2.11-2.49-3.05-3.83c-.48-.66-1-1.31-1.41-2L170.46,29c-.43-.7-.81-1.42-1.22-2.13s-.79-1.43-1.16-2.15-.76-1.44-1.09-2.19l-1-2.22c-.65-1.5-1.24-3-1.8-4.55-.29-.76-.52-1.54-.79-2.31s-.47-1.56-.7-2.34C162.36,9.88,162.08,8.68,161.84,7.48Z" transform="translate(0 0)"/><path class="cls-2" d="M166.78,60.64l2,3.77,2.28,4.37c.89,1.67,1.85,3.59,2.91,5.68s2.21,4.34,3.37,6.75,2.35,5,3.61,7.62,2.58,5.35,4,8.09,2.9,5.47,4.4,8.2l8.9,16c1.44,2.54,2.83,5,4.12,7.34s2.57,4.52,3.73,6.55,2.29,3.84,3.26,5.47,1.9,3,2.63,4.14l2.51,3.47-.09.08-2.8-3.27-2.9-4c-1.09-1.57-2.23-3.39-3.51-5.36s-2.55-4.16-3.92-6.47-2.72-4.79-4.12-7.36l-4.22-8c-1.39-2.74-2.81-5.52-4.17-8.33l-2.06-4.19-2.09-4.14c-1.41-2.73-2.81-5.4-4.21-8s-2.76-5.05-3.95-7.45-2.33-4.66-3.34-6.78-2-4-2.72-5.77-1.49-3.23-2-4.49c-1.1-2.5-1.69-3.94-1.69-3.94Z" transform="translate(0 0)"/><path class="cls-2" d="M166.79,59.49s0,1.38-.18,3.79c-.05,1.2-.17,2.66-.28,4.34s-.27,3.56-.44,5.62-.36,4.28-.62,6.63-.61,4.83-.94,7.39-.64,5.21-.93,7.9c-.12,1.35-.24,2.71-.37,4.08s-.2,2.74-.31,4.11c-.18,2.75-.4,5.49-.63,8.19s-.49,5.36-.72,7.93c-.49,5.14-1.05,9.93-1.59,14s-1.05,7.51-1.43,9.89-.68,3.73-.68,3.73l-.11,0s.11-1.37.32-3.77c.1-1.2.22-2.66.36-4.33s.31-3.56.49-5.61.4-4.29.62-6.64.49-4.83.78-7.4.6-5.21.91-7.9.66-5.43,1-8.16c.17-1.36.35-2.73.52-4.09s.3-2.72.44-4.06c.26-2.7.5-5.36.66-7.94s.32-5.06.53-7.42.46-4.58.68-6.63.43-3.94.65-5.6.39-3.12.56-4.31c.34-2.39.56-3.75.56-3.75Z" transform="translate(0 0)"/><path class="cls-2" d="M94.47,88.88s.3,1.14.93,3.1c.32,1,.69,2.17,1.17,3.52s1,2.88,1.65,4.52,1.39,3.39,2.17,5.25,1.6,3.83,2.56,5.81c.46,1,1,2,1.51,3s1.12,2,1.75,3a58.9,58.9,0,0,0,4.08,5.71c1.46,1.84,3,3.59,4.58,5.29l2.39,2.46c.83.77,1.62,1.55,2.44,2.28s1.63,1.44,2.45,2.11l2.4,1.94,2.36,1.74c.76.56,1.53,1,2.25,1.55s1.45.93,2.14,1.34,1.32.83,1.94,1.18c1.26.68,2.35,1.3,3.27,1.76l2.9,1.45,0,.11-3.06-1.12c-1-.37-2.1-.93-3.43-1.51-.65-.31-1.33-.68-2-1.06s-1.47-.78-2.22-1.26-1.57-.94-2.37-1.47l-2.44-1.71c-.82-.62-1.64-1.28-2.48-1.95s-1.63-1.43-2.46-2.18-1.6-1.58-2.42-2.39-1.57-1.69-2.35-2.56-1.52-1.79-2.24-2.73-1.44-1.89-2.09-2.88-1.35-1.94-2-2.94-1.27-2-1.89-3c-1.22-2-2.4-3.94-3.51-5.87s-2.11-3.83-3-5.68-1.53-3.66-2.12-5.34-1.1-3.23-1.48-4.62-.7-2.61-.91-3.63c-.43-2-.56-3.21-.56-3.21Z" transform="translate(0 0)"/><path class="cls-2" d="M128,111l.36,2c.14.62.26,1.37.46,2.23s.41,1.82.65,2.87.54,2.18.85,3.37.6,2.47,1,3.76a26,26,0,0,0,1.46,3.9c.29.65.65,1.27,1,1.91s.75,1.23,1.16,1.82.81,1.19,1.26,1.75.85,1.13,1.31,1.67a33.67,33.67,0,0,0,2.77,3c.48.46,1,.88,1.45,1.32s1,.8,1.44,1.2c1,.74,1.89,1.44,2.79,2a11.5,11.5,0,0,0,1.32.79l1.2.69,2,1,1.82.8,0,.12s-.71-.16-2-.47c-.62-.16-1.34-.45-2.19-.73a25.07,25.07,0,0,1-2.73-1.29,23.79,23.79,0,0,1-6-4.54,31.31,31.31,0,0,1-2.73-3.27,28.83,28.83,0,0,1-2.3-3.72c-.69-1.29-1.29-2.62-1.9-3.91s-1.18-2.59-1.73-3.84a34.64,34.64,0,0,1-1.4-3.7c-.37-1.2-.62-2.36-.84-3.44s-.35-2.07-.43-3-.16-1.66-.18-2.3a19.73,19.73,0,0,1,0-2Z" transform="translate(0 0)"/><path class="cls-2" d="M59.17,130.3l1.7,1.74,1.9,2,2.45,2.64c.88,1,1.85,2,2.84,3.16s2,2.38,3.07,3.63,2.18,2.55,3.4,3.77l1.85,1.84,2,1.78,3.91,3.48c1.27,1.18,2.58,2.26,3.82,3.34s2.48,2.06,3.61,3.05,2.27,1.84,3.27,2.69,2,1.5,2.85,2.17c.43.32.81.64,1.19.9l1.06.71c1.26.87,2,1.39,2,1.39l-.06.1s-.79-.38-2.17-1.08a23.28,23.28,0,0,1-2.43-1.37c-.92-.58-2-1.19-3-2s-2.27-1.59-3.44-2.55-2.43-2-3.65-3.1-2.49-2.25-3.71-3.49-2.48-2.48-3.66-3.79c-2.39-2.59-4.8-5.15-7.21-7.42-1.19-1.15-2.33-2.27-3.37-3.36s-2-2.2-2.83-3.2-1.63-1.94-2.28-2.8-1.24-1.58-1.69-2.21c-.91-1.24-1.4-2-1.4-2Z" transform="translate(0 0)"/><path class="cls-2" d="M21.53,117.36l3.31,2.31,3.77,2.68c1.47,1,3.09,2.22,4.88,3.5L39.25,130c2,1.52,4.14,3.11,6.34,4.76s4.52,3.29,6.88,5,4.85,3.22,7.34,4.77l7.44,4.6c2.46,1.51,4.85,3,7.22,4.43l6.78,4.09c2.17,1.27,4.18,2.56,6.09,3.65s3.64,2.11,5.17,3,2.91,1.64,4,2.29l3.49,2,0,.11L96.31,167c-1.16-.55-2.58-1.22-4.17-2s-3.38-1.77-5.32-2.8-4-2.23-6.21-3.49-4.45-2.66-6.79-4.11-4.72-3-7.14-4.59-4.82-3.28-7.23-4.95c-1.21-.83-2.4-1.7-3.6-2.54L52.26,140c-2.38-1.64-4.74-3.22-7-4.73s-4.53-3-6.59-4.43-4-2.89-5.73-4.21-3.36-2.55-4.76-3.67-2.62-2.08-3.6-2.91c-2-1.64-3.08-2.62-3.08-2.62Z" transform="translate(0 0)"/><path class="cls-2" d="M268.81,88.3s.08.94.19,2.59c.06.82.08,1.82.14,3s.08,2.44.12,3.86,0,2.94,0,4.56-.13,3.32-.2,5.09-.15,3.59-.14,5.44c0,.93,0,1.86,0,2.8s.07,1.88.1,2.82c.09,1.89.16,3.77.2,5.63s.07,3.67.1,5.44c0,3.53,0,6.83-.1,9.65s-.2,5.18-.28,6.83-.18,2.59-.18,2.59,0,.06-.07.05a0,0,0,0,1-.05-.05s-.08-.94-.18-2.59-.22-4-.29-6.83-.14-6.12-.1-9.65c0-1.77.06-3.59.1-5.44s.11-3.74.2-5.63c0-.94.07-1.88.1-2.82s0-1.87,0-2.8c0-1.85,0-3.67-.14-5.44s-.18-3.47-.2-5.09,0-3.15,0-4.56.05-2.71.11-3.86.08-2.15.14-3c.11-1.65.2-2.59.2-2.59a.05.05,0,0,1,.06,0A.06.06,0,0,1,268.81,88.3Z" transform="translate(0 0)"/><path class="cls-2" d="M280.86,107.4s.09.64.19,1.75.21,2.69.26,4.59c0,1,0,2,0,3.07s-.13,2.24-.21,3.43-.14,2.42-.14,3.66.08,2.52.15,3.79.15,2.53.2,3.78.06,2.48.09,3.67c.05,2.37,0,4.59-.1,6.49s-.19,3.49-.28,4.6-.18,1.74-.18,1.74h-.12s-.08-.63-.18-1.74-.22-2.69-.28-4.6-.15-4.12-.1-6.49c0-1.19.06-2.42.09-3.67s.11-2.51.2-3.78.15-2.54.15-3.79-.05-2.47-.14-3.66-.18-2.34-.21-3.43,0-2.12,0-3.07c0-1.9.15-3.48.26-4.59s.19-1.75.19-1.75Z" transform="translate(0 0)"/><path class="cls-2" d="M17.3,115.23s1.1.19,3,.65c.94.23,2.08.51,3.37.88s2.74.81,4.31,1.3,3.27,1.07,5,1.75,3.58,1.52,5.46,2.38,3.85,1.67,5.89,2.38,4.16,1.32,6.28,1.92,4.26,1.14,6.32,1.81l6,1.95c2,.65,3.84,1.3,5.6,2s3.42,1.33,5,2c3,1.26,5.57,2.39,7.31,3.23s2.73,1.34,2.73,1.34a.13.13,0,0,1,.05.17.12.12,0,0,1-.13.06s-1.09-.22-3-.67-4.54-1.17-7.7-2.11c-1.58-.48-3.29-1-5.08-1.61s-3.67-1.26-5.6-2l-5.92-2.3c-2-.78-4-1.69-6-2.57s-4-1.76-6.08-2.47S40,123.91,38,123.39s-3.94-1-5.73-1.6-3.47-1.22-5-1.81-2.94-1.17-4.16-1.71-2.3-1-3.18-1.43c-1.74-.83-2.71-1.38-2.71-1.38a.13.13,0,0,1,0-.17A.16.16,0,0,1,17.3,115.23Z" transform="translate(0 0)"/><path class="cls-3" d="M222.29,149.74l.59-16.46s32.05-1.17,38.52-2.64v18.22S229,150.19,222.29,149.74Z" transform="translate(0 0)"/><path class="cls-2" d="M222.23,149.74c0-2.75,0-5.49,0-8.24l.05-4.12.1-4.12v-.44l.45,0,4.82-.24c1.61-.1,3.22-.13,4.83-.2,3.21-.16,6.43-.18,9.64-.31,1.61-.05,3.22-.1,4.83-.2s3.21-.17,4.81-.3,3.21-.28,4.8-.47a46.3,46.3,0,0,0,4.74-.74l.36-.08v.38l.19,9.11.1,9.11v.56l-.57,0q-9.77.51-19.56.65c-3.26,0-6.52.09-9.78.05-1.63,0-3.26,0-4.9-.08s-3.26-.12-4.89-.27h-.06Zm.13-.06c1.61,0,3.21,0,4.82-.09l4.89-.19,9.76-.41,9.77-.4,9.77-.32-.57.59.1-9.11.19-9.11.37.29c-1.61.29-3.21.44-4.82.59s-3.21.28-4.82.4l-9.63.77c-3.21.25-6.42.54-9.64.69-1.6.08-3.21.19-4.82.24l-4.83.14.47-.46-.2,4.11-.24,4.12C222.78,144.25,222.58,147,222.36,149.68Z" transform="translate(0 0)"/><path class="cls-2" d="M232.29,137.84a1.91,1.91,0,1,1-1.91-1.91A1.91,1.91,0,0,1,232.29,137.84Z" transform="translate(0 0)"/><path class="cls-2" d="M232.35,137.84s0,.18,0,.53a2.22,2.22,0,0,1-.61,1.45,1.65,1.65,0,0,1-1.06.44,1.89,1.89,0,0,1-.32,0l-.28-.07a1.91,1.91,0,0,1-.57-.29,3.67,3.67,0,0,1-.84-.88,3.19,3.19,0,0,1-.5-1.16,2,2,0,0,1,.21-1.35,2.34,2.34,0,0,1,1-1,2.16,2.16,0,0,1,1.29-.21,1.84,1.84,0,0,1,1.08.52,2,2,0,0,1,.48.81,3.6,3.6,0,0,1,.13.66C232.35,137.65,232.35,137.84,232.35,137.84Zm-.12,0a1.15,1.15,0,0,0-.12-.48,1.39,1.39,0,0,0-1-.69,2.87,2.87,0,0,0-.61-.1,2,2,0,0,0-.69.09,1.43,1.43,0,0,0-.63.42,1.81,1.81,0,0,0-.43.76,1.15,1.15,0,0,0,.14.95,1.08,1.08,0,0,0,.8.5,1.11,1.11,0,0,0,.41,0l.23,0,.16,0,.64-.18a1.5,1.5,0,0,0,.94-.71A1.22,1.22,0,0,0,232.23,137.84Z" transform="translate(0 0)"/><path class="cls-2" d="M244.25,137.45a1.92,1.92,0,1,1-1.91-1.91A1.92,1.92,0,0,1,244.25,137.45Z" transform="translate(0 0)"/><path class="cls-2" d="M244.31,137.45a5.24,5.24,0,0,1,0,.53,2.17,2.17,0,0,1-.61,1.45,1.63,1.63,0,0,1-1,.44l-.33,0-.27-.07a1.88,1.88,0,0,1-.58-.3,3.69,3.69,0,0,1-.84-.88,3,3,0,0,1-.49-1.17,2.09,2.09,0,0,1,0-.67,1.91,1.91,0,0,1,.22-.66,2.36,2.36,0,0,1,1-1,2.05,2.05,0,0,1,1.28-.21,1.9,1.9,0,0,1,1.09.52,2.11,2.11,0,0,1,.48.81,3.33,3.33,0,0,1,.12.66C244.31,137.26,244.31,137.45,244.31,137.45Zm-.12,0a1.37,1.37,0,0,0-.12-.47,1.41,1.41,0,0,0-.95-.69,3.08,3.08,0,0,0-.61-.1,2,2,0,0,0-.7.09,1.43,1.43,0,0,0-.62.41,1.84,1.84,0,0,0-.44.78,1.18,1.18,0,0,0,.15.94,1.09,1.09,0,0,0,.79.5,1.16,1.16,0,0,0,.42,0l.22,0,.16,0,.64-.18a1.53,1.53,0,0,0,1-.71A1.25,1.25,0,0,0,244.19,137.44Z" transform="translate(0 0)"/><path class="cls-2" d="M255.22,137.05a1.91,1.91,0,1,1-1.91-1.91A1.9,1.9,0,0,1,255.22,137.05Z" transform="translate(0 0)"/><path class="cls-2" d="M255.28,137.06s0,.18,0,.53a2.22,2.22,0,0,1-.61,1.45,1.65,1.65,0,0,1-1,.44l-.33,0-.28-.07a1.93,1.93,0,0,1-.57-.3,3.5,3.5,0,0,1-.84-.88,3,3,0,0,1-.5-1.17,2.09,2.09,0,0,1,0-.67,2.05,2.05,0,0,1,.23-.67,2.37,2.37,0,0,1,1-1,2.09,2.09,0,0,1,1.29-.21,1.83,1.83,0,0,1,1.08.51,2,2,0,0,1,.48.82,2.84,2.84,0,0,1,.13.65A4.52,4.52,0,0,1,255.28,137.06Zm-.12,0a1.18,1.18,0,0,0-.12-.48,1.38,1.38,0,0,0-.95-.68,2.87,2.87,0,0,0-.61-.1,2,2,0,0,0-.69.09,1.46,1.46,0,0,0-.63.41,1.94,1.94,0,0,0-.43.78,1.13,1.13,0,0,0,.94,1.44,1.81,1.81,0,0,0,.41,0l.23,0,.16,0,.64-.18a1.58,1.58,0,0,0,.94-.71A1.25,1.25,0,0,0,255.16,137.05Z" transform="translate(0 0)"/><line class="cls-4" x1="260.81" y1="145.63" x2="245.23" y2="145.92"/><polygon class="cls-2" points="260.82 146.23 245.23 145.92 260.8 145.03 260.82 146.23"/><line class="cls-4" x1="260.81" y1="142.4" x2="245.23" y2="142.69"/><polygon class="cls-2" points="260.82 143 245.23 142.69 260.8 141.79 260.82 143"/><line class="cls-4" x1="261.1" y1="140.63" x2="250.52" y2="140.63"/><polygon class="cls-2" points="261.1 141.23 250.52 140.63 261.1 140.03 261.1 141.23"/><path class="cls-2" d="M281.43,147.88l-.16-5.72.23.22c-3.18.28-6.36.48-9.55.72l-4.77.33-4.78.22-9.57.4c-3.19,0-6.38.12-9.57.12l-4.79,0-4.78-.06c-3.19,0-6.38,0-9.57-.07s-6.38-.06-9.57-.08L205,143.9c-3.19,0-6.39-.05-9.58-.14s-6.38-.12-9.56-.24l-9.57-.39c-3.19-.14-6.37-.33-9.56-.52l-9.55-.65c-3.18-.22-6.36-.53-9.54-.8s-6.36-.58-9.53-.94-6.34-.7-9.51-1.13l.25-.22-.16,6.59h-.12l-.17-6.59v-.25l.25,0c6.35.56,12.72,1,19.07,1.48l19.09,1.23q4.77.26,9.54.56l9.55.5,9.55.46c3.19.17,6.37.27,9.56.39s6.37.27,9.56.29,6.38.12,9.57.11,6.37,0,9.56-.13l4.78-.11,4.78-.17,19.12-.58,4.78-.15,4.77-.21c3.19-.12,6.37-.28,9.56-.36h.23v.21l-.15,5.72Z" transform="translate(0 0)"/><path class="cls-2" d="M270.9,142.79a4.48,4.48,0,0,1,.35.91,8,8,0,0,1,0,4,4.48,4.48,0,0,1-.35.91,4.17,4.17,0,0,1-.34-.91,7.73,7.73,0,0,1-.26-2,8.21,8.21,0,0,1,.26-2A4.17,4.17,0,0,1,270.9,142.79Z" transform="translate(0 0)"/><path class="cls-2" d="M260.51,142.79a4.48,4.48,0,0,1,.35.91,8,8,0,0,1,0,4,3.87,3.87,0,0,1-.35.91,4.17,4.17,0,0,1-.34-.91,7.71,7.71,0,0,1,0-4A4.17,4.17,0,0,1,260.51,142.79Z" transform="translate(0 0)"/><path class="cls-2" d="M249.34,143.6a4.53,4.53,0,0,1,.35.9,8,8,0,0,1,0,4,4.53,4.53,0,0,1-.35.9,4.21,4.21,0,0,1-.34-.9,7.81,7.81,0,0,1-.26-2,8.35,8.35,0,0,1,.26-2A4.21,4.21,0,0,1,249.34,143.6Z" transform="translate(0 0)"/><path class="cls-2" d="M238.76,143.6a4.21,4.21,0,0,1,.34.9,8.35,8.35,0,0,1,.26,2,7.81,7.81,0,0,1-.26,2,4.21,4.21,0,0,1-.34.9,4.53,4.53,0,0,1-.35-.9,8,8,0,0,1,0-4A4.53,4.53,0,0,1,238.76,143.6Z" transform="translate(0 0)"/><path class="cls-2" d="M226.8,144a4.17,4.17,0,0,1,.34.91,7.73,7.73,0,0,1,.26,2,7.33,7.33,0,0,1-.26,2,4.17,4.17,0,0,1-.34.91,4.48,4.48,0,0,1-.35-.91,7.77,7.77,0,0,1-.25-2,7.31,7.31,0,0,1,.26-2A4.17,4.17,0,0,1,226.8,144Z" transform="translate(0 0)"/><path class="cls-2" d="M214.3,144a4.48,4.48,0,0,1,.35.91,8,8,0,0,1,0,4,3.87,3.87,0,0,1-.35.91,4.17,4.17,0,0,1-.34-.91,7.71,7.71,0,0,1,0-4A4.17,4.17,0,0,1,214.3,144Z" transform="translate(0 0)"/><path class="cls-2" d="M202.75,143.6a4.21,4.21,0,0,1,.34.9,8.35,8.35,0,0,1,.26,2,7.81,7.81,0,0,1-.26,2,4.21,4.21,0,0,1-.34.9,4.53,4.53,0,0,1-.35-.9,8,8,0,0,1,0-4A4.53,4.53,0,0,1,202.75,143.6Z" transform="translate(0 0)"/><path class="cls-2" d="M191.86,143.46a4.82,4.82,0,0,1,.35.91,7.77,7.77,0,0,1,.25,2,7.89,7.89,0,0,1-.25,2,3.9,3.9,0,0,1-.35.9,4.21,4.21,0,0,1-.34-.9,8.35,8.35,0,0,1-.26-2,8.21,8.21,0,0,1,.26-2A4.46,4.46,0,0,1,191.86,143.46Z" transform="translate(0 0)"/><path class="cls-2" d="M179.91,142.93a4.21,4.21,0,0,1,.34.9,7.75,7.75,0,0,1,0,4,4.21,4.21,0,0,1-.34.9,3.9,3.9,0,0,1-.35-.9,8,8,0,0,1,0-4A3.9,3.9,0,0,1,179.91,142.93Z" transform="translate(0 0)"/><path class="cls-2" d="M167,142a4.21,4.21,0,0,1,.34.9,7.75,7.75,0,0,1,0,4,4.21,4.21,0,0,1-.34.9,3.9,3.9,0,0,1-.35-.9,8,8,0,0,1,0-4A4.53,4.53,0,0,1,167,142Z" transform="translate(0 0)"/><path class="cls-2" d="M154.78,141.05a4.21,4.21,0,0,1,.34.9,8.28,8.28,0,0,1,.26,2,7.44,7.44,0,0,1-.26,2,4.21,4.21,0,0,1-.34.9,4.53,4.53,0,0,1-.35-.9,7.89,7.89,0,0,1-.25-2,7.39,7.39,0,0,1,.26-2A4.21,4.21,0,0,1,154.78,141.05Z" transform="translate(0 0)"/><path class="cls-2" d="M142,140.11a4.53,4.53,0,0,1,.35.9,7.77,7.77,0,0,1,.25,2,7.89,7.89,0,0,1-.25,2,3.9,3.9,0,0,1-.35.9,4.21,4.21,0,0,1-.34-.9,8.35,8.35,0,0,1-.26-2,8.21,8.21,0,0,1,.26-2A4.21,4.21,0,0,1,142,140.11Z" transform="translate(0 0)"/><path class="cls-3" d="M100,168.66H270.51s11-8.63,11-13.72v-7.06s-105.06,8.63-198-9A44.16,44.16,0,0,1,100,168.66Z" transform="translate(0 0)"/><path class="cls-2" d="M100.1,168.54c7.07-.2,14.14-.29,21.21-.44l21.31-.26c7.11-.11,14.21-.11,21.32-.15l21.31-.11,21.32.08c3.55,0,7.1.08,10.65.11l10.66.14,21.31.27,21.32.11-.23.08a58.49,58.49,0,0,0,4.64-4.13c.73-.72,1.46-1.47,2.14-2.24a29.35,29.35,0,0,0,1.94-2.39,11.62,11.62,0,0,0,.84-1.27,11.32,11.32,0,0,0,.7-1.33,5,5,0,0,0,.26-.7,3.43,3.43,0,0,0,.18-.7l.08-.7v-.78l0-6.25.49.46c-8.26.7-16.52,1.21-24.8,1.63-4.13.23-8.27.37-12.41.56l-12.43.35-12.42.18c-4.15,0-8.29,0-12.43,0s-8.29-.1-12.43-.18-8.29-.15-12.43-.34-8.28-.31-12.42-.52l-12.41-.76c-4.14-.23-8.27-.67-12.4-1s-8.26-.67-12.38-1.19l-12.35-1.46c-4.11-.51-8.21-1.18-12.31-1.76l-6.15-.9c-2-.32-4.09-.71-6.13-1.08L83.4,139.57l.54-1.29c.62.47,1.18.94,1.74,1.44s1.08,1,1.61,1.52,1,1.06,1.52,1.62,1,1.09,1.44,1.68.93,1.14,1.35,1.75.87,1.2,1.27,1.81L94,150c.37.63.71,1.29,1.06,1.93a21.32,21.32,0,0,1,1,2c.3.67.65,1.32.89,2l.78,2.06c.27.68.44,1.4.66,2.09s.46,1.4.59,2.12l.47,2.14c.18.71.24,1.44.35,2.17Zm-.21.24-.4-2.25a19.59,19.59,0,0,0-.43-2.13l-.55-2.1a21.57,21.57,0,0,0-.65-2.07c-.25-.68-.44-1.38-.74-2l-.84-2c-.27-.67-.64-1.29-1-1.94s-.65-1.29-1-1.9-.72-1.25-1.11-1.85L92,148.71c-.42-.59-.86-1.15-1.29-1.73s-.91-1.11-1.36-1.67-1-1.07-1.44-1.6-1-1-1.51-1.53-1-1-1.6-1.42-1.11-.91-1.66-1.31l-2.46-1.76,3,.47,12.25,1.94c2,.3,4.07.69,6.12,1l6.15.8c4.1.51,8.18,1.11,12.29,1.56l12.33,1.25c4.11.47,8.23.73,12.35,1.08s8.23.71,12.36.92l12.37.78,12.39.57c4.12.22,8.26.33,12.39.45s8.26.26,12.39.29,8.27.14,12.4.14h12.41l12.4-.13c4.14-.09,8.27-.13,12.4-.26s8.27-.25,12.4-.44,8.27-.39,12.39-.65l.5,0v.49l0,6.25v.78l-.1.85a4.38,4.38,0,0,1-.21.81,6.43,6.43,0,0,1-.29.77,12.13,12.13,0,0,1-.77,1.42,11.73,11.73,0,0,1-.89,1.32,26.45,26.45,0,0,1-2,2.45c-.7.78-1.44,1.53-2.19,2.26-1.5,1.46-3.08,2.83-4.71,4.16l-.1.07h-.13l-21.32.11-21.31.28-10.66.13c-3.55,0-7.1.11-10.65.12l-21.32.08-21.31-.11c-7.11,0-14.21,0-21.32-.15l-21.31-.26c-7.11-.15-14.21-.24-21.32-.44Z" transform="translate(0 0)"/><polygon class="cls-2" points="91.47 145.32 99.4 145.92 91.47 146.52 91.47 145.32"/><polygon class="cls-2" points="93.43 148.07 103.72 148.67 93.43 149.27 93.43 148.07"/><polygon class="cls-2" points="96.17 154.73 118.61 155.33 96.17 155.93 96.17 154.73"/><polygon class="cls-2" points="97.93 157.28 125.28 157.88 97.93 158.48 97.93 157.28"/><polygon class="cls-2" points="95.19 151.99 114.69 152.59 95.19 153.19 95.19 151.99"/><polygon class="cls-2" points="98.72 159.83 134.29 160.43 98.72 161.03 98.72 159.83"/><polygon class="cls-2" points="99.31 162.18 128.8 162.78 99.31 163.38 99.31 162.18"/><polygon class="cls-2" points="99.7 164.53 142.52 165.13 99.7 165.73 99.7 164.53"/><polygon class="cls-2" points="140.86 159.83 148.8 160.43 140.86 161.03 140.86 159.83"/><path class="cls-2" d="M281.14,153.28s-12,.7-24,1.13c-6,.22-12,.37-16.49.4s-7.5-.07-7.5-.07,3,0,7.5-.12,10.48-.44,16.46-.81c12-.73,23.92-1.72,23.92-1.72Z" transform="translate(0 0)"/><path class="cls-2" d="M281.14,155.83s-12,.7-24,1.13c-6,.22-12,.37-16.49.4s-7.5-.07-7.5-.07,3,0,7.5-.12,10.48-.44,16.46-.81c12-.73,23.92-1.73,23.92-1.73Z" transform="translate(0 0)"/><path class="cls-2" d="M278.58,161.71s-15.43.81-30.88,1.22c-7.72.21-15.45.32-21.24.28-1.45,0-2.78,0-4-.06s-2.21,0-3-.08l-2.65-.1,2.65.05c.85,0,1.87,0,3,0s2.5,0,4,0c5.79-.07,13.51-.33,21.22-.69,15.43-.71,30.83-1.82,30.83-1.82Z" transform="translate(0 0)"/><path class="cls-2" d="M280.76,158.77s-4.49.39-11.21.77-15.7.78-24.68,1c-4.49.1-9,.14-13.18.15-2.11,0-4.14,0-6.07,0s-3.75,0-5.44-.08c-3.36,0-6.17-.14-8.13-.21l-3.08-.1,3.08.05c2,0,4.77.08,8.14.07,1.68,0,3.5,0,5.43,0s4,0,6.06-.07c4.21-.08,8.69-.19,13.17-.37,9-.33,17.93-.86,24.63-1.37s11.16-1,11.16-1Z" transform="translate(0 0)"/><path class="cls-2" d="M275.42,165.14s-30.77.48-61.55.58c-15.39.05-30.78,0-42.32-.16-5.77-.08-10.57-.17-13.94-.27l-5.29-.16,5.29.1c3.37.07,8.18.12,13.95.14,11.53,0,26.92-.05,42.31-.26,30.77-.39,61.53-1.17,61.53-1.17Z" transform="translate(0 0)"/><path class="cls-2" d="M205.26,160.93s-9,0-18.09,0c-4.53,0-9-.07-12.44-.15s-5.65-.17-5.65-.17,2.26,0,5.65,0,7.91-.15,12.43-.27c9-.26,18.07-.61,18.07-.61Z" transform="translate(0 0)"/><path class="cls-2" d="M48.41,168.27l10.28-.2c6.54-.08,15.88-.27,27.09-.36s24.29-.27,38.3-.31l43.9-.13,43.9.13c14,0,27.09.22,38.3.3s20.55.29,27.09.37l10.27.2-10.27.19c-6.54.08-15.88.28-27.09.37s-24.29.27-38.3.3l-43.9.14-43.9-.14c-14,0-27.09-.22-38.3-.3s-20.55-.29-27.09-.37Z" transform="translate(0 0)"/><path class="cls-4" d="M55.73,172.58s114.43.49,131.29.1" transform="translate(0 0)"/><path class="cls-2" d="M55.73,172l65.64.51,45.13.23h14.87l5.65,0-5.65.1-14.87.13-45.13.18-65.65.09Z" transform="translate(0 0)"/><path class="cls-4" d="M193.38,172.58s59.62.39,76.47,0" transform="translate(0 0)"/><path class="cls-2" d="M193.39,172l38.23.46,26.29.18c7.16,0,11.94,0,11.94,0s-4.77.14-11.94.23l-26.29.23-38.24.14Z" transform="translate(0 0)"/><path class="cls-4" d="M204.26,175.81s47.42.39,64.27,0" transform="translate(0 0)"/><path class="cls-2" d="M204.27,175.21l32.13.47c8,.09,16.07.16,22.09.17s10,0,10,0-4,.13-10,.23-14.06.18-22.09.24l-32.14.13Z" transform="translate(0 0)"/><path class="cls-4" d="M59.25,176.4s120.32.2,137.17-.2" transform="translate(0 0)"/><polygon class="cls-2" points="59.25 175.8 196.42 176.21 59.26 177 59.25 175.8"/><path class="cls-4" d="M77.47,180.52s120.91-.69,137.77-1.08" transform="translate(0 0)"/><polygon class="cls-2" points="77.46 179.92 215.24 179.44 77.48 181.12 77.46 179.92"/><path class="cls-4" d="M222.78,178.46s31.51-.06,38.32-.16" transform="translate(0 0)"/><polygon class="cls-2" points="222.78 177.86 261.1 178.3 222.79 179.06 222.78 177.86"/><path class="cls-4" d="M229.25,181.4s31.51-.06,38.32-.16" transform="translate(0 0)"/><polygon class="cls-2" points="229.25 180.8 267.57 181.24 229.26 182 229.25 180.8"/><path class="cls-4" d="M102.91,186.4s50.84-.06,57.65-.16" transform="translate(0 0)"/><polygon class="cls-2" points="102.91 185.8 160.56 186.24 102.92 187 102.91 185.8"/><path class="cls-4" d="M180.45,186.4s52.78-.06,59.59-.16" transform="translate(0 0)"/><polygon class="cls-2" points="180.44 185.8 240.04 186.24 180.45 187 180.44 185.8"/><path class="cls-4" d="M170.75,189.34s70.53-.06,77.34-.16" transform="translate(0 0)"/><polygon class="cls-2" points="170.74 188.74 248.09 189.18 170.75 189.94 170.74 188.74"/><path class="cls-4" d="M178.1,192.57s24.74-.1,31.55-.2" transform="translate(0 0)"/><polygon class="cls-2" points="178.09 191.97 209.65 192.37 178.1 193.17 178.09 191.97"/><path class="cls-4" d="M109.09,189s50.83-.06,57.65-.15" transform="translate(0 0)"/><polygon class="cls-2" points="109.08 188.44 166.74 188.89 109.09 189.64 109.08 188.44"/><path class="cls-4" d="M111.44,192.28s46.13-.06,52.94-.16" transform="translate(0 0)"/><polygon class="cls-2" points="111.43 191.68 164.38 192.12 111.44 192.88 111.43 191.68"/><path class="cls-4" d="M84.92,183.75s119.93-.39,136.79-.78" transform="translate(0 0)"/><polygon class="cls-2" points="84.91 183.15 221.71 182.97 84.93 184.35 84.91 183.15"/><path class="cls-2" d="M245.65,64s1.85-.88,4.6-2.31,6.36-3.41,9.93-5.49,7.09-4.25,9.7-5.92c1.31-.83,2.38-1.55,3.14-2l1.19-.78-1.16.83c-.73.53-1.77,1.29-3.05,2.18-2.54,1.79-6,4.11-9.45,6.34s-7,4.38-9.73,5.93-4.54,2.53-4.54,2.53Z" transform="translate(0 0)"/><path class="cls-2" d="M244.73,68.6s1.86-.87,4.6-2.3,6.37-3.42,9.94-5.49,7.08-4.25,9.69-5.93c1.31-.83,2.38-1.55,3.14-2l1.19-.79-1.16.84c-.73.52-1.77,1.29-3.05,2.17-2.54,1.79-6,4.12-9.45,6.35s-7,4.38-9.73,5.93-4.54,2.52-4.54,2.52Z" transform="translate(0 0)"/><path class="cls-2" d="M247,71.36s1.85-.88,4.6-2.31,6.36-3.41,9.93-5.49,7.09-4.25,9.69-5.93c1.31-.82,2.39-1.54,3.14-2l1.19-.78-1.15.83c-.73.53-1.78,1.29-3.05,2.18-2.54,1.78-6,4.11-9.45,6.34s-7,4.38-9.73,5.93-4.54,2.53-4.54,2.53Z" transform="translate(0 0)"/><path class="cls-2" d="M237.33,58.87s1.44-.61,3.6-1.59,5-2.36,7.82-3.79c5.65-2.84,11.16-6,11.16-6s-5.32,3.44-10.82,6.6c-2.75,1.59-5.53,3.12-7.64,4.23s-3.54,1.81-3.54,1.81Z" transform="translate(0 0)"/><path class="cls-2" d="M237.1,55.42s1.22-.5,3-1.32,4.24-1.94,6.64-3.12c4.8-2.34,9.5-4.9,9.5-4.9s-4.52,2.87-9.17,5.52c-2.32,1.34-4.67,2.63-6.45,3.57s-3,1.54-3,1.54Z" transform="translate(0 0)"/><path class="cls-2" d="M250.48,73.19l2-.91c1.21-.57,2.82-1.34,4.41-2.14,3.2-1.58,6.36-3.27,6.36-3.27s-3,2-6,3.89c-1.52.95-3,1.88-4.21,2.57l-2,1.13Z" transform="translate(0 0)"/><path class="cls-2" d="M247.33,59.08l2.53-1.17c1.52-.71,3.52-1.69,5.5-2.73s3.93-2.13,5.37-3,2.38-1.48,2.38-1.48-.89.69-2.26,1.67-3.23,2.23-5.14,3.42c-3.8,2.4-7.76,4.55-7.76,4.55Z" transform="translate(0 0)"/><path class="cls-2" d="M253.23,75.26l1.62-.71c1-.43,2.26-1,3.55-1.63,2.57-1.22,5.12-2.51,5.12-2.51s-2.37,1.59-4.78,3.12c-1.2.77-2.42,1.52-3.34,2.08l-1.54.91Z" transform="translate(0 0)"/><path class="cls-2" d="M259.79,86.59s3-1.56,7.4-4.16c2.2-1.29,4.74-2.85,7.43-4.56s5.54-3.6,8.34-5.54c1.41-1,2.78-2,4.15-2.93s2.68-2,4-2.92,2.49-1.91,3.66-2.8S297,61.92,298,61.11c2-1.6,3.62-3,4.75-4l1.79-1.52-1.75,1.56c-1.11,1-2.69,2.43-4.65,4.08-1,.83-2,1.73-3.17,2.65s-2.32,1.92-3.59,2.9-2.55,2-3.9,3-2.7,2.06-4.09,3.05c-2.75,2-5.55,4-8.21,5.77s-5.17,3.42-7.34,4.77c-4.35,2.73-7.36,4.39-7.36,4.39Z" transform="translate(0 0)"/><path class="cls-2" d="M257.16,92s3-1.49,7.5-4c2.23-1.24,4.8-2.73,7.53-4.39s5.62-3.47,8.46-5.35c1.43-.92,2.83-1.9,4.22-2.84s2.72-1.91,4-2.82,2.54-1.86,3.72-2.72,2.28-1.71,3.29-2.5c2-1.54,3.69-2.89,4.84-3.84l1.82-1.48-1.78,1.53c-1.13,1-2.75,2.36-4.74,4-1,.81-2.07,1.68-3.23,2.58S290.45,72,289.16,73s-2.59,2-4,2.94-2.75,2-4.16,3c-2.8,2-5.65,3.85-8.34,5.58s-5.24,3.3-7.45,4.61c-4.4,2.62-7.45,4.22-7.45,4.22Z" transform="translate(0 0)"/><path class="cls-2" d="M253,98.54s3.09-1.39,7.63-3.73c2.27-1.16,4.9-2.57,7.69-4.13s5.73-3.27,8.63-5.05c1.47-.87,2.9-1.79,4.32-2.68s2.79-1.82,4.13-2.69,2.6-1.76,3.81-2.58,2.34-1.63,3.38-2.38c2.09-1.48,3.79-2.77,5-3.67l1.87-1.42-1.83,1.47c-1.16.93-2.83,2.26-4.88,3.79-1,.78-2.12,1.62-3.32,2.47s-2.43,1.79-3.75,2.69-2.66,1.87-4.07,2.79-2.81,1.9-4.25,2.81c-2.87,1.86-5.78,3.65-8.54,5.28s-5.35,3.12-7.6,4.35c-4.5,2.46-7.6,4-7.6,4Z" transform="translate(0 0)"/><path class="cls-2" d="M256.21,101.74s3.09-1.38,7.63-3.73c2.27-1.16,4.89-2.57,7.68-4.13s5.73-3.26,8.64-5c1.46-.88,2.89-1.8,4.31-2.69s2.79-1.82,4.13-2.69,2.6-1.76,3.82-2.58,2.34-1.63,3.37-2.38c2.09-1.48,3.79-2.76,5-3.67l1.87-1.41-1.84,1.46c-1.16.93-2.83,2.27-4.88,3.8-1,.77-2.12,1.61-3.32,2.46s-2.42,1.79-3.75,2.69-2.66,1.88-4.06,2.8-2.82,1.89-4.26,2.8c-2.87,1.86-5.78,3.65-8.53,5.28s-5.36,3.12-7.61,4.35c-4.49,2.47-7.59,4-7.59,4Z" transform="translate(0 0)"/><path class="cls-2" d="M260,104.83s3.09-1.38,7.63-3.73c2.27-1.16,4.9-2.57,7.69-4.13s5.73-3.27,8.63-5c1.47-.87,2.9-1.79,4.32-2.68s2.79-1.82,4.13-2.69,2.6-1.76,3.81-2.58,2.34-1.63,3.38-2.38c2.09-1.48,3.78-2.76,5-3.67l1.87-1.41L304.58,78c-1.17.93-2.83,2.26-4.88,3.8-1,.77-2.13,1.61-3.32,2.46S294,86,292.63,86.92s-2.66,1.87-4.07,2.79-2.81,1.9-4.25,2.81c-2.87,1.86-5.78,3.65-8.54,5.28s-5.35,3.12-7.6,4.35c-4.5,2.47-7.6,3.95-7.6,3.95Z" transform="translate(0 0)"/><path class="cls-2" d="M276.13,100.41s1.82-.92,4.52-2.43,6.24-3.57,9.74-5.74,6.94-4.43,9.49-6.17c1.28-.86,2.33-1.61,3.07-2.12l1.16-.81L303,84c-.72.54-1.74,1.33-3,2.25-2.48,1.85-5.83,4.26-9.24,6.58s-6.88,4.55-9.53,6.17-4.45,2.65-4.45,2.65Z" transform="translate(0 0)"/><path class="cls-2" d="M275.1,72.76s1.19-.71,2.95-1.83,4.1-2.66,6.41-4.24c4.61-3.15,9.08-6.52,9.08-6.52s-4.25,3.64-8.67,7.08c-2.21,1.73-4.45,3.42-6.15,4.65s-2.87,2-2.87,2Z" transform="translate(0 0)"/><path class="cls-2" d="M281.05,64.06l1.59-.91c1-.56,2.23-1.32,3.49-2.1,2.53-1.54,5-3.17,5-3.17s-2.28,1.91-4.61,3.75c-1.17.92-2.35,1.83-3.24,2.5l-1.5,1.12Z" transform="translate(0 0)"/><polygon class="cls-2" points="280.58 60.64 286 57.83 281.35 61.81 280.58 60.64"/><path class="cls-2" d="M0,87s1.25-.27,3.45-.87c1.1-.29,2.42-.68,3.94-1.15s3.22-1,5.07-1.64S16.3,82,18.39,81.21s4.29-1.67,6.57-2.56,4.58-1.92,6.94-2.94,4.73-2.09,7.08-3.23,4.72-2.21,7-3.4,4.57-2.27,6.72-3.43l6.22-3.33,5.51-3.1c1.71-.95,3.27-1.84,4.63-2.67l3.54-2.11,3.09-1.83-3.06,1.88-3.51,2.16c-1.35.84-2.9,1.75-4.59,2.73l-5.47,3.19L52.88,66c-2.14,1.2-4.4,2.33-6.67,3.54s-4.64,2.32-7,3.5-4.73,2.23-7.05,3.34-4.67,2.08-6.92,3-4.44,1.87-6.55,2.66-4.08,1.57-5.93,2.23S9.24,85.54,7.72,86s-2.85.9-4,1.22-2,.55-2.58.71l-.92.22Z" transform="translate(0 0)"/><path class="cls-2" d="M16.92,77s1.23-.34,3.39-1.07c1.08-.36,2.38-.82,3.87-1.37s3.15-1.2,5-1.94,3.76-1.55,5.8-2.47,4.19-1.91,6.41-2.94,4.46-2.18,6.75-3.34,4.61-2.36,6.89-3.63,4.59-2.48,6.8-3.79,4.42-2.53,6.5-3.82l6-3.68,5.31-3.41c1.66-1.06,3.16-2,4.47-2.94l3.42-2.3,3-2-2.95,2.06-3.38,2.35c-1.29.93-2.79,1.93-4.42,3l-5.28,3.5-6,3.76c-2.06,1.32-4.26,2.58-6.46,3.92s-4.49,2.59-6.75,3.9-4.59,2.5-6.85,3.73S43.9,66.87,41.71,68s-4.33,2.13-6.39,3-4,1.8-5.79,2.57-3.48,1.44-5,2S21.77,76.66,20.68,77s-1.93.67-2.53.85l-.91.28Z" transform="translate(0 0)"/><path class="cls-2" d="M18.9,84.79s.72-.19,2-.6,3-1,5.16-1.83,4.57-1.8,7.18-2.9,5.37-2.37,8.1-3.67c1.37-.66,2.74-1.29,4.07-2s2.65-1.31,3.91-2L52.92,70l3.23-1.75c2-1.08,3.63-2,4.79-2.68l1.82-1L61,65.56c-1.14.68-2.75,1.68-4.73,2.8l-3.19,1.83-3.58,2c-1.24.69-2.55,1.36-3.87,2.07s-2.67,1.38-4,2.08c-2.71,1.37-5.45,2.68-8,3.88s-5,2.24-7.15,3.09-3.9,1.54-5.16,2-2,.67-2,.67Z" transform="translate(0 0)"/><path class="cls-2" d="M36,82.15s1.37-.45,3.4-1.25,4.71-1.94,7.36-3.16c5.32-2.42,10.48-5.16,10.48-5.16L54,74.42c-1.9,1.09-4.46,2.5-7.05,3.86s-5.23,2.64-7.24,3.55-3.38,1.45-3.38,1.45Z" transform="translate(0 0)"/><path class="cls-2" d="M33.9,87.15s1.28-.42,3.2-1.17,4.45-1.81,7-3c5-2.25,9.9-4.8,9.9-4.8S49.22,81,44.32,83.57c-2.45,1.28-4.94,2.48-6.83,3.34s-3.19,1.37-3.19,1.37Z" transform="translate(0 0)"/><path class="cls-2" d="M33.6,91.85s1.15-.37,2.87-1,4-1.58,6.23-2.57c4.49-2,8.89-4.18,8.89-4.18S47.34,86.55,43,88.79c-2.18,1.13-4.41,2.2-6.09,3S34,93,34,93Z" transform="translate(0 0)"/><path class="cls-2" d="M30.25,67.93s.68-.22,1.88-.66,2.91-1.1,4.94-2,4.37-1.9,6.86-3.06,5.13-2.47,7.73-3.83c1.3-.68,2.61-1.34,3.88-2s2.53-1.36,3.72-2c2.41-1.34,4.64-2.63,6.53-3.76s3.46-2.09,4.57-2.75l1.72-1-1.7,1.1c-1.08.69-2.61,1.71-4.49,2.86s-4.06,2.52-6.44,3.93c-1.18.72-2.42,1.41-3.67,2.14S53.23,58.24,52,59c-2.58,1.43-5.19,2.79-7.66,4s-4.8,2.35-6.82,3.25-3.72,1.62-4.93,2.1-1.91.72-1.91.72Z" transform="translate(0 0)"/><path class="cls-2" d="M14.05,70.24s3.54-1.16,8.77-3.16c2.62-1,5.65-2.21,8.88-3.55,1.61-.69,3.28-1.38,5-2.13s3.39-1.49,5.08-2.29,3.38-1.58,5-2.4S50,55.1,51.6,54.3s3-1.59,4.46-2.36,2.75-1.48,4-2.19l3.32-1.9,2.51-1.54L68,45l-2.16,1.38-2.49,1.59-3.28,2c-1.19.74-2.51,1.49-3.91,2.28s-2.88,1.62-4.43,2.44S48.63,56.32,47,57.15s-3.31,1.69-5,2.5-3.37,1.62-5,2.4S33.62,63.56,32,64.29C28.81,65.69,25.8,67,23.19,68c-5.2,2.12-8.75,3.36-8.75,3.36Z" transform="translate(0 0)"/><path class="cls-2" d="M15.82,65.83s3.53-1.16,8.76-3.16c2.62-1,5.65-2.21,8.88-3.55,1.61-.69,3.28-1.38,5-2.13s3.39-1.49,5.08-2.29,3.38-1.58,5-2.4,3.27-1.61,4.83-2.41,3.06-1.59,4.46-2.36,2.76-1.48,4-2.19l3.32-1.9,2.52-1.54,2.19-1.34-2.17,1.38-2.48,1.59-3.28,2c-1.2.74-2.52,1.49-3.92,2.28s-2.87,1.63-4.42,2.44-3.14,1.69-4.79,2.52-3.31,1.69-5,2.5-3.38,1.62-5,2.4-3.32,1.51-4.92,2.24c-3.22,1.4-6.23,2.69-8.84,3.73C19.75,65.73,16.2,67,16.2,67Z" transform="translate(0 0)"/><path class="cls-2" d="M26.28,56.52s2.36-.86,5.86-2.28,8.13-3.4,12.71-5.51,9.1-4.35,12.45-6.1c1.68-.87,3.07-1.62,4-2.15l1.52-.82-1.5.87c-1,.55-2.31,1.35-4,2.26-3.3,1.86-7.75,4.24-12.28,6.48s-9.1,4.38-12.58,5.9-5.82,2.47-5.82,2.47Z" transform="translate(0 0)"/><path class="cls-2" d="M37.14,47.12l2.72-1.07c1.63-.67,3.79-1.58,5.94-2.52,4.31-1.87,8.55-3.89,8.55-3.89s-4.1,2.29-8.29,4.44C44,45.15,41.86,46.2,40.27,47L37.6,48.23Z" transform="translate(0 0)"/><path class="cls-2" d="M38.32,42.12s2.85-1,5.68-2.19,5.64-2.34,5.64-2.34S47,39.06,44.25,40.48s-5.47,2.75-5.47,2.75Z" transform="translate(0 0)"/></g></g></svg>