{
	"asset":{
		"generator":"Khronos glTF Blender I/O v4.3.47",
		"version":"2.0"
	},
	"scene":0,
	"scenes":[
		{
			"name":"Scene",
			"nodes":[
				5,
				6,
				12
			]
		}
	],
	"nodes":[
		{
			"mesh":0,
			"name":"pCube1",
			"rotation":[
				-0.7071068286895752,
				0,
				0,
				0.7071068286895752
			],
			"scale":[
				1.9999998807907104,
				2,
				35
			],
			"translation":[
				0,
				-5.22050142288208,
				-9.999999046325684
			]
		},
		{
			"mesh":1,
			"name":"pCube2",
			"rotation":[
				-0.7071068286895752,
				0,
				0,
				0.7071068286895752
			],
			"scale":[
				0.4999999701976776,
				2,
				19.999998092651367
			],
			"translation":[
				0,
				2.279494285583496,
				-5
			]
		},
		{
			"mesh":2,
			"name":"pCube3",
			"rotation":[
				-0.7071068286895752,
				0,
				0,
				0.7071068286895752
			],
			"scale":[
				1.9999998807907104,
				2,
				15
			],
			"translation":[
				0,
				4.779496192932129,
				0
			]
		},
		{
			"mesh":3,
			"name":"pCube4",
			"rotation":[
				-0.7071068286895752,
				0,
				0,
				0.7071068286895752
			],
			"scale":[
				1.9999998807907104,
				2,
				18
			],
			"translation":[
				0,
				3.2794926166534424,
				10
			]
		},
		{
			"mesh":4,
			"name":"pCube5",
			"rotation":[
				-0.7071068286895752,
				0,
				0,
				0.7071068286895752
			],
			"scale":[
				1.9999998807907104,
				2,
				11.999999046325684
			],
			"translation":[
				0,
				6.2794952392578125,
				4.999999523162842
			]
		},
		{
			"children":[
				0,
				1,
				2,
				3,
				4
			],
			"name":"Grafico_3",
			"rotation":[
				0.5473818778991699,
				-0.44763055443763733,
				0.44763052463531494,
				0.5473818778991699
			],
			"scale":[
				1.344435453414917,
				1.344435453414917,
				1.3444355726242065
			],
			"translation":[
				-67.8104248046875,
				15.426420211791992,
				-0.3676300048828125
			]
		},
		{
			"name":"Grafico_1",
			"rotation":[
				0.7071068286895752,
				0,
				0,
				0.7071068286895752
			],
			"scale":[
				0.009999999776482582,
				0.009999999776482582,
				0.009999999776482582
			]
		},
		{
			"mesh":5,
			"name":"pCylinder2.001",
			"scale":[
				8.37462329864502,
				8.37462329864502,
				2
			],
			"translation":[
				0,
				0,
				-2
			]
		},
		{
			"mesh":6,
			"name":"pCylinder3.001",
			"scale":[
				8.37462329864502,
				8.37462329864502,
				1.25
			],
			"translation":[
				0,
				0,
				-1.2500001192092896
			]
		},
		{
			"mesh":7,
			"name":"pCylinder4.001",
			"scale":[
				8.375,
				8.37462329864502,
				0.5
			],
			"translation":[
				0,
				0,
				-0.5
			]
		},
		{
			"mesh":8,
			"name":"pCylinder5.001",
			"scale":[
				8.375,
				8.37462329864502,
				0.5
			],
			"translation":[
				0,
				0,
				-0.5
			]
		},
		{
			"mesh":9,
			"name":"pCylinder6.001",
			"scale":[
				8.37462329864502,
				8.37462329864502,
				0.75
			],
			"translation":[
				0,
				0,
				-0.75
			]
		},
		{
			"children":[
				7,
				8,
				9,
				10,
				11
			],
			"name":"Grafico_2.001",
			"rotation":[
				0.11413991451263428,
				-0.6978338956832886,
				0.6978338360786438,
				0.11413992196321487
			],
			"scale":[
				3.612652063369751,
				3.612652063369751,
				3.612652063369751
			],
			"translation":[
				61.62406921386719,
				0.013063430786132812,
				-3.69952067558188e-05
			]
		}
	],
	"materials":[
		{
			"doubleSided":true,
			"name":"standardSurface1.003",
			"pbrMetallicRoughness":{
				"baseColorFactor":[
					0,
					0.15944093465805054,
					1,
					1
				],
				"metallicFactor":0,
				"roughnessFactor":0.5527864098548889
			}
		},
		{
			"doubleSided":true,
			"name":"standardSurface1.004",
			"pbrMetallicRoughness":{
				"baseColorFactor":[
					0.019886497408151627,
					0.03292465955018997,
					1,
					1
				],
				"metallicFactor":0,
				"roughnessFactor":0.5527864098548889
			}
		},
		{
			"doubleSided":true,
			"name":"standardSurface1.005",
			"pbrMetallicRoughness":{
				"baseColorFactor":[
					0.07675576955080032,
					0.08879083395004272,
					1,
					1
				],
				"metallicFactor":0,
				"roughnessFactor":0.5527864098548889
			}
		},
		{
			"doubleSided":true,
			"name":"standardSurface1.006",
			"pbrMetallicRoughness":{
				"baseColorFactor":[
					0.1399736851453781,
					0.18637597560882568,
					1,
					1
				],
				"metallicFactor":0,
				"roughnessFactor":0.5527864098548889
			}
		},
		{
			"doubleSided":true,
			"name":"standardSurface1.008",
			"pbrMetallicRoughness":{
				"baseColorFactor":[
					0.3403969705104828,
					0.32626575231552124,
					1,
					1
				],
				"metallicFactor":0,
				"roughnessFactor":0.5527864098548889
			}
		}
	],
	"meshes":[
		{
			"name":"Mesh.008",
			"primitives":[
				{
					"attributes":{
						"POSITION":0,
						"NORMAL":1,
						"TEXCOORD_0":2
					},
					"indices":3,
					"material":0
				}
			]
		},
		{
			"name":"Mesh.012",
			"primitives":[
				{
					"attributes":{
						"POSITION":4,
						"NORMAL":5,
						"TEXCOORD_0":6
					},
					"indices":3,
					"material":1
				}
			]
		},
		{
			"name":"Mesh.018",
			"primitives":[
				{
					"attributes":{
						"POSITION":7,
						"NORMAL":8,
						"TEXCOORD_0":9
					},
					"indices":3,
					"material":2
				}
			]
		},
		{
			"name":"Mesh.017",
			"primitives":[
				{
					"attributes":{
						"POSITION":10,
						"NORMAL":11,
						"TEXCOORD_0":12
					},
					"indices":3,
					"material":3
				}
			]
		},
		{
			"name":"Mesh.010",
			"primitives":[
				{
					"attributes":{
						"POSITION":13,
						"NORMAL":14,
						"TEXCOORD_0":15
					},
					"indices":3,
					"material":3
				}
			]
		},
		{
			"name":"Mesh.029",
			"primitives":[
				{
					"attributes":{
						"POSITION":16,
						"NORMAL":17,
						"TEXCOORD_0":18
					},
					"indices":19,
					"material":0
				}
			]
		},
		{
			"name":"Mesh.030",
			"primitives":[
				{
					"attributes":{
						"POSITION":20,
						"NORMAL":21,
						"TEXCOORD_0":22
					},
					"indices":23,
					"material":1
				}
			]
		},
		{
			"name":"Mesh.031",
			"primitives":[
				{
					"attributes":{
						"POSITION":24,
						"NORMAL":25,
						"TEXCOORD_0":26
					},
					"indices":27,
					"material":4
				}
			]
		},
		{
			"name":"Mesh.032",
			"primitives":[
				{
					"attributes":{
						"POSITION":28,
						"NORMAL":29,
						"TEXCOORD_0":30
					},
					"indices":31,
					"material":3
				}
			]
		},
		{
			"name":"Mesh.033",
			"primitives":[
				{
					"attributes":{
						"POSITION":32,
						"NORMAL":33,
						"TEXCOORD_0":34
					},
					"indices":35,
					"material":2
				}
			]
		}
	],
	"accessors":[
		{
			"bufferView":0,
			"componentType":5126,
			"count":24,
			"max":[
				0.5,
				0.5,
				0.5
			],
			"min":[
				-0.5,
				-0.5,
				-0.5
			],
			"type":"VEC3"
		},
		{
			"bufferView":1,
			"componentType":5126,
			"count":24,
			"type":"VEC3"
		},
		{
			"bufferView":2,
			"componentType":5126,
			"count":24,
			"type":"VEC2"
		},
		{
			"bufferView":3,
			"componentType":5123,
			"count":36,
			"type":"SCALAR"
		},
		{
			"bufferView":4,
			"componentType":5126,
			"count":24,
			"max":[
				0.5,
				0.5,
				0.5
			],
			"min":[
				-0.5,
				-0.5,
				-0.5
			],
			"type":"VEC3"
		},
		{
			"bufferView":5,
			"componentType":5126,
			"count":24,
			"type":"VEC3"
		},
		{
			"bufferView":6,
			"componentType":5126,
			"count":24,
			"type":"VEC2"
		},
		{
			"bufferView":7,
			"componentType":5126,
			"count":24,
			"max":[
				0.5,
				0.5,
				0.5
			],
			"min":[
				-0.5,
				-0.5,
				-0.5
			],
			"type":"VEC3"
		},
		{
			"bufferView":8,
			"componentType":5126,
			"count":24,
			"type":"VEC3"
		},
		{
			"bufferView":9,
			"componentType":5126,
			"count":24,
			"type":"VEC2"
		},
		{
			"bufferView":10,
			"componentType":5126,
			"count":24,
			"max":[
				0.5,
				0.5,
				0.5
			],
			"min":[
				-0.5,
				-0.5,
				-0.5
			],
			"type":"VEC3"
		},
		{
			"bufferView":11,
			"componentType":5126,
			"count":24,
			"type":"VEC3"
		},
		{
			"bufferView":12,
			"componentType":5126,
			"count":24,
			"type":"VEC2"
		},
		{
			"bufferView":13,
			"componentType":5126,
			"count":24,
			"max":[
				0.5,
				0.5,
				0.5
			],
			"min":[
				-0.5,
				-0.5,
				-0.5
			],
			"type":"VEC3"
		},
		{
			"bufferView":14,
			"componentType":5126,
			"count":24,
			"type":"VEC3"
		},
		{
			"bufferView":15,
			"componentType":5126,
			"count":24,
			"type":"VEC2"
		},
		{
			"bufferView":16,
			"componentType":5126,
			"count":88,
			"max":[
				0.7809504866600037,
				1.0863807201385498,
				1
			],
			"min":[
				-1.0280671119689941,
				0.08638054132461548,
				-1
			],
			"type":"VEC3"
		},
		{
			"bufferView":17,
			"componentType":5126,
			"count":88,
			"type":"VEC3"
		},
		{
			"bufferView":18,
			"componentType":5126,
			"count":88,
			"type":"VEC2"
		},
		{
			"bufferView":19,
			"componentType":5123,
			"count":204,
			"type":"SCALAR"
		},
		{
			"bufferView":20,
			"componentType":5126,
			"count":54,
			"max":[
				-0.07679485529661179,
				-0.07679508626461029,
				1
			],
			"min":[
				-1.0767947435379028,
				-1.0767951011657715,
				-1
			],
			"type":"VEC3"
		},
		{
			"bufferView":21,
			"componentType":5126,
			"count":54,
			"type":"VEC3"
		},
		{
			"bufferView":22,
			"componentType":5126,
			"count":54,
			"type":"VEC2"
		},
		{
			"bufferView":23,
			"componentType":5123,
			"count":132,
			"type":"SCALAR"
		},
		{
			"bufferView":24,
			"componentType":5126,
			"count":30,
			"max":[
				0.6185747981071472,
				-0.09476187825202942,
				1
			],
			"min":[
				0.030788615345954895,
				-1.094761848449707,
				-1
			],
			"type":"VEC3"
		},
		{
			"bufferView":25,
			"componentType":5126,
			"count":30,
			"type":"VEC3"
		},
		{
			"bufferView":26,
			"componentType":5126,
			"count":30,
			"type":"VEC2"
		},
		{
			"bufferView":27,
			"componentType":5123,
			"count":60,
			"type":"SCALAR"
		},
		{
			"bufferView":28,
			"componentType":5126,
			"count":30,
			"max":[
				1.0242691040039062,
				-0.05319420248270035,
				1
			],
			"min":[
				0.07321219891309738,
				-0.8622114062309265,
				-1
			],
			"type":"VEC3"
		},
		{
			"bufferView":29,
			"componentType":5126,
			"count":30,
			"type":"VEC3"
		},
		{
			"bufferView":30,
			"componentType":5126,
			"count":30,
			"type":"VEC2"
		},
		{
			"bufferView":31,
			"componentType":5123,
			"count":60,
			"type":"SCALAR"
		},
		{
			"bufferView":32,
			"componentType":5126,
			"count":40,
			"max":[
				1.079176664352417,
				0.6003261804580688,
				1
			],
			"min":[
				0.07917707413434982,
				-0.2964763045310974,
				-1
			],
			"type":"VEC3"
		},
		{
			"bufferView":33,
			"componentType":5126,
			"count":40,
			"type":"VEC3"
		},
		{
			"bufferView":34,
			"componentType":5126,
			"count":40,
			"type":"VEC2"
		},
		{
			"bufferView":35,
			"componentType":5123,
			"count":84,
			"type":"SCALAR"
		}
	],
	"bufferViews":[
		{
			"buffer":0,
			"byteLength":288,
			"byteOffset":0,
			"target":34962
		},
		{
			"buffer":0,
			"byteLength":288,
			"byteOffset":288,
			"target":34962
		},
		{
			"buffer":0,
			"byteLength":192,
			"byteOffset":576,
			"target":34962
		},
		{
			"buffer":0,
			"byteLength":72,
			"byteOffset":768,
			"target":34963
		},
		{
			"buffer":0,
			"byteLength":288,
			"byteOffset":840,
			"target":34962
		},
		{
			"buffer":0,
			"byteLength":288,
			"byteOffset":1128,
			"target":34962
		},
		{
			"buffer":0,
			"byteLength":192,
			"byteOffset":1416,
			"target":34962
		},
		{
			"buffer":0,
			"byteLength":288,
			"byteOffset":1608,
			"target":34962
		},
		{
			"buffer":0,
			"byteLength":288,
			"byteOffset":1896,
			"target":34962
		},
		{
			"buffer":0,
			"byteLength":192,
			"byteOffset":2184,
			"target":34962
		},
		{
			"buffer":0,
			"byteLength":288,
			"byteOffset":2376,
			"target":34962
		},
		{
			"buffer":0,
			"byteLength":288,
			"byteOffset":2664,
			"target":34962
		},
		{
			"buffer":0,
			"byteLength":192,
			"byteOffset":2952,
			"target":34962
		},
		{
			"buffer":0,
			"byteLength":288,
			"byteOffset":3144,
			"target":34962
		},
		{
			"buffer":0,
			"byteLength":288,
			"byteOffset":3432,
			"target":34962
		},
		{
			"buffer":0,
			"byteLength":192,
			"byteOffset":3720,
			"target":34962
		},
		{
			"buffer":0,
			"byteLength":1056,
			"byteOffset":3912,
			"target":34962
		},
		{
			"buffer":0,
			"byteLength":1056,
			"byteOffset":4968,
			"target":34962
		},
		{
			"buffer":0,
			"byteLength":704,
			"byteOffset":6024,
			"target":34962
		},
		{
			"buffer":0,
			"byteLength":408,
			"byteOffset":6728,
			"target":34963
		},
		{
			"buffer":0,
			"byteLength":648,
			"byteOffset":7136,
			"target":34962
		},
		{
			"buffer":0,
			"byteLength":648,
			"byteOffset":7784,
			"target":34962
		},
		{
			"buffer":0,
			"byteLength":432,
			"byteOffset":8432,
			"target":34962
		},
		{
			"buffer":0,
			"byteLength":264,
			"byteOffset":8864,
			"target":34963
		},
		{
			"buffer":0,
			"byteLength":360,
			"byteOffset":9128,
			"target":34962
		},
		{
			"buffer":0,
			"byteLength":360,
			"byteOffset":9488,
			"target":34962
		},
		{
			"buffer":0,
			"byteLength":240,
			"byteOffset":9848,
			"target":34962
		},
		{
			"buffer":0,
			"byteLength":120,
			"byteOffset":10088,
			"target":34963
		},
		{
			"buffer":0,
			"byteLength":360,
			"byteOffset":10208,
			"target":34962
		},
		{
			"buffer":0,
			"byteLength":360,
			"byteOffset":10568,
			"target":34962
		},
		{
			"buffer":0,
			"byteLength":240,
			"byteOffset":10928,
			"target":34962
		},
		{
			"buffer":0,
			"byteLength":120,
			"byteOffset":11168,
			"target":34963
		},
		{
			"buffer":0,
			"byteLength":480,
			"byteOffset":11288,
			"target":34962
		},
		{
			"buffer":0,
			"byteLength":480,
			"byteOffset":11768,
			"target":34962
		},
		{
			"buffer":0,
			"byteLength":320,
			"byteOffset":12248,
			"target":34962
		},
		{
			"buffer":0,
			"byteLength":168,
			"byteOffset":12568,
			"target":34963
		}
	],
	"buffers":[
		{
			"byteLength":12736,
			"uri":"GraficosBinacional.bin"
		}
	]
}
