{
	"asset":{
		"generator":"Khronos glTF Blender I/O v4.3.47",
		"version":"2.0"
	},
	"scene":0,
	"scenes":[
		{
			"name":"Scene",
			"nodes":[
				5,
				19
			]
		}
	],
	"nodes":[
		{
			"mesh":0,
			"name":"pCylinder2",
			"scale":[
				8.37462329864502,
				8.37462329864502,
				2
			],
			"translation":[
				0,
				0,
				-2
			]
		},
		{
			"mesh":1,
			"name":"pCylinder3",
			"scale":[
				8.37462329864502,
				8.37462329864502,
				1.2500001192092896
			],
			"translation":[
				0,
				0,
				-1.2500001192092896
			]
		},
		{
			"mesh":2,
			"name":"pCylinder4",
			"scale":[
				8.375,
				8.37462329864502,
				0.5
			],
			"translation":[
				0,
				0,
				-0.5
			]
		},
		{
			"mesh":3,
			"name":"pCylinder5",
			"scale":[
				8.375,
				8.37462329864502,
				0.5
			],
			"translation":[
				0,
				0,
				-0.5
			]
		},
		{
			"mesh":4,
			"name":"pCylinder6",
			"scale":[
				8.37462329864502,
				8.37462329864502,
				0.75
			],
			"translation":[
				0,
				0,
				-0.75
			]
		},
		{
			"children":[
				0,
				1,
				2,
				3,
				4
			],
			"name":"Grafico_2",
			"rotation":[
				0.44199681282043457,
				-0.5519409775733948,
				0.55194091796875,
				0.44199684262275696
			],
			"scale":[
				2.684441566467285,
				2.684441566467285,
				5.5091047286987305
			],
			"translation":[
				61.93535614013672,
				0,
				0.9977560043334961
			]
		},
		{
			"mesh":5,
			"name":"pCube1",
			"rotation":[
				-0.7071068286895752,
				0,
				0,
				0.7071068286895752
			],
			"scale":[
				1.9999998807907104,
				2,
				35
			],
			"translation":[
				0,
				-5.22050142288208,
				-9.999999046325684
			]
		},
		{
			"mesh":6,
			"name":"pCube2",
			"rotation":[
				-0.7071068286895752,
				0,
				0,
				0.7071068286895752
			],
			"scale":[
				0.4999999701976776,
				2,
				19.999998092651367
			],
			"translation":[
				0,
				2.279494285583496,
				-5
			]
		},
		{
			"mesh":7,
			"name":"pCube3",
			"rotation":[
				-0.7071068286895752,
				0,
				0,
				0.7071068286895752
			],
			"scale":[
				1.9999998807907104,
				2,
				15
			],
			"translation":[
				0,
				4.779496192932129,
				0
			]
		},
		{
			"mesh":8,
			"name":"pCube4",
			"rotation":[
				-0.7071068286895752,
				0,
				0,
				0.7071068286895752
			],
			"scale":[
				1.9999998807907104,
				2,
				18
			],
			"translation":[
				0,
				3.2794926166534424,
				10
			]
		},
		{
			"mesh":9,
			"name":"pCube5",
			"rotation":[
				-0.7071068286895752,
				0,
				0,
				0.7071068286895752
			],
			"scale":[
				1.9999998807907104,
				2,
				11.999999046325684
			],
			"translation":[
				0,
				6.2794952392578125,
				4.999999523162842
			]
		},
		{
			"mesh":10,
			"name":"pPlane1",
			"rotation":[
				-0.707099974155426,
				0.0030853261705487967,
				-0.003085326636210084,
				0.7071000933647156
			],
			"scale":[
				1.999999761581421,
				22,
				1
			],
			"translation":[
				0,
				2.279494047164917,
				0
			]
		},
		{
			"mesh":11,
			"name":"pPlane2",
			"rotation":[
				-0.707099974155426,
				0.0030853261705487967,
				-0.003085326636210084,
				0.7071000933647156
			],
			"scale":[
				1.999999761581421,
				22,
				1
			],
			"translation":[
				0,
				7.2794952392578125,
				0
			]
		},
		{
			"mesh":12,
			"name":"pPlane3",
			"rotation":[
				-0.707099974155426,
				0.0030853261705487967,
				-0.003085326636210084,
				0.7071000933647156
			],
			"scale":[
				1.999999761581421,
				22,
				1
			],
			"translation":[
				0,
				-2.7205071449279785,
				0
			]
		},
		{
			"mesh":13,
			"name":"pPlane4",
			"rotation":[
				-0.707099974155426,
				0.0030853261705487967,
				-0.003085326636210084,
				0.7071000933647156
			],
			"scale":[
				1.999999761581421,
				22,
				1
			],
			"translation":[
				0,
				-7.720500469207764,
				0
			]
		},
		{
			"mesh":14,
			"name":"pPlane5",
			"rotation":[
				-0.707099974155426,
				0.0030853261705487967,
				-0.003085326636210084,
				0.7071000933647156
			],
			"scale":[
				1.999999761581421,
				22,
				1
			],
			"translation":[
				0,
				-12.720501899719238,
				0
			]
		},
		{
			"mesh":15,
			"name":"pPlane6",
			"rotation":[
				-0.707099974155426,
				0.0030853261705487967,
				-0.003085326636210084,
				0.7071000933647156
			],
			"scale":[
				1.999999761581421,
				22,
				1
			],
			"translation":[
				0,
				-17.72050666809082,
				0
			]
		},
		{
			"mesh":16,
			"name":"pPlane7",
			"rotation":[
				-0.707099974155426,
				0.0030853261705487967,
				-0.003085326636210084,
				0.7071000933647156
			],
			"scale":[
				1.999999761581421,
				22,
				1
			],
			"translation":[
				0,
				-22.720504760742188,
				0
			]
		},
		{
			"mesh":17,
			"name":"pPlane8",
			"rotation":[
				-0.707099974155426,
				0.0030853261705487967,
				-0.003085326636210084,
				0.7071000933647156
			],
			"scale":[
				1.999999761581421,
				22,
				1
			],
			"translation":[
				0.10723090171813965,
				12.287287712097168,
				0
			]
		},
		{
			"children":[
				6,
				7,
				8,
				9,
				10,
				11,
				12,
				13,
				14,
				15,
				16,
				17,
				18
			],
			"name":"Grafico_3",
			"rotation":[
				0.5473818778991699,
				-0.44763055443763733,
				0.44763052463531494,
				0.5473818778991699
			],
			"scale":[
				1.344435453414917,
				1.344435453414917,
				1.3444355726242065
			],
			"translation":[
				-67.8104248046875,
				15.426420211791992,
				-0.3676300048828125
			]
		}
	],
	"materials":[
		{
			"doubleSided":true,
			"name":"standardSurface1.003",
			"pbrMetallicRoughness":{
				"baseColorFactor":[
					0,
					0.15944093465805054,
					1,
					1
				],
				"metallicFactor":0,
				"roughnessFactor":0.5527864098548889
			}
		},
		{
			"doubleSided":true,
			"name":"standardSurface1.004",
			"pbrMetallicRoughness":{
				"baseColorFactor":[
					0.019886497408151627,
					0.03292465955018997,
					1,
					1
				],
				"metallicFactor":0,
				"roughnessFactor":0.5527864098548889
			}
		},
		{
			"doubleSided":true,
			"name":"standardSurface1.005",
			"pbrMetallicRoughness":{
				"baseColorFactor":[
					0.07675576955080032,
					0.08879083395004272,
					1,
					1
				],
				"metallicFactor":0,
				"roughnessFactor":0.5527864098548889
			}
		},
		{
			"doubleSided":true,
			"name":"standardSurface1.006",
			"pbrMetallicRoughness":{
				"baseColorFactor":[
					0.1399736851453781,
					0.18637597560882568,
					1,
					1
				],
				"metallicFactor":0,
				"roughnessFactor":0.5527864098548889
			}
		},
		{
			"doubleSided":true,
			"name":"standardSurface1.008",
			"pbrMetallicRoughness":{
				"baseColorFactor":[
					0.3403969705104828,
					0.32626575231552124,
					1,
					1
				],
				"metallicFactor":0,
				"roughnessFactor":0.5527864098548889
			}
		},
		{
			"doubleSided":true,
			"name":"Material.001",
			"pbrMetallicRoughness":{
				"baseColorFactor":[
					0,
					0,
					0,
					1
				],
				"metallicFactor":0,
				"roughnessFactor":0.5
			}
		},
		{
			"doubleSided":true,
			"name":"standardSurface1.009",
			"pbrMetallicRoughness":{
				"baseColorFactor":[
					0,
					0,
					0,
					1
				],
				"metallicFactor":0,
				"roughnessFactor":0.5527864098548889
			}
		}
	],
	"meshes":[
		{
			"name":"Mesh",
			"primitives":[
				{
					"attributes":{
						"POSITION":0,
						"NORMAL":1,
						"TEXCOORD_0":2
					},
					"indices":3,
					"material":0
				}
			]
		},
		{
			"name":"Mesh.002",
			"primitives":[
				{
					"attributes":{
						"POSITION":4,
						"NORMAL":5,
						"TEXCOORD_0":6
					},
					"indices":7,
					"material":1
				}
			]
		},
		{
			"name":"Mesh.004",
			"primitives":[
				{
					"attributes":{
						"POSITION":8,
						"NORMAL":9,
						"TEXCOORD_0":10
					},
					"indices":11,
					"material":2
				}
			]
		},
		{
			"name":"Mesh.006",
			"primitives":[
				{
					"attributes":{
						"POSITION":12,
						"NORMAL":13,
						"TEXCOORD_0":14
					},
					"indices":15,
					"material":3
				}
			]
		},
		{
			"name":"Mesh.007",
			"primitives":[
				{
					"attributes":{
						"POSITION":16,
						"NORMAL":17,
						"TEXCOORD_0":18
					},
					"indices":19,
					"material":4
				}
			]
		},
		{
			"name":"Mesh.008",
			"primitives":[
				{
					"attributes":{
						"POSITION":20,
						"NORMAL":21,
						"TEXCOORD_0":22
					},
					"indices":23,
					"material":0
				}
			]
		},
		{
			"name":"Mesh.012",
			"primitives":[
				{
					"attributes":{
						"POSITION":24,
						"NORMAL":25,
						"TEXCOORD_0":26
					},
					"indices":23,
					"material":1
				}
			]
		},
		{
			"name":"Mesh.018",
			"primitives":[
				{
					"attributes":{
						"POSITION":27,
						"NORMAL":28,
						"TEXCOORD_0":29
					},
					"indices":23,
					"material":2
				}
			]
		},
		{
			"name":"Mesh.017",
			"primitives":[
				{
					"attributes":{
						"POSITION":30,
						"NORMAL":31,
						"TEXCOORD_0":32
					},
					"indices":23,
					"material":3
				}
			]
		},
		{
			"name":"Mesh.010",
			"primitives":[
				{
					"attributes":{
						"POSITION":33,
						"NORMAL":34,
						"TEXCOORD_0":35
					},
					"indices":23,
					"material":3
				}
			]
		},
		{
			"name":"Mesh.013",
			"primitives":[
				{
					"attributes":{
						"POSITION":36,
						"NORMAL":37,
						"TEXCOORD_0":38
					},
					"indices":39,
					"material":5
				}
			]
		},
		{
			"name":"Mesh.014",
			"primitives":[
				{
					"attributes":{
						"POSITION":40,
						"NORMAL":41,
						"TEXCOORD_0":42
					},
					"indices":39,
					"material":5
				}
			]
		},
		{
			"name":"Mesh.011",
			"primitives":[
				{
					"attributes":{
						"POSITION":43,
						"NORMAL":44,
						"TEXCOORD_0":45
					},
					"indices":39,
					"material":5
				}
			]
		},
		{
			"name":"Mesh.015",
			"primitives":[
				{
					"attributes":{
						"POSITION":46,
						"NORMAL":47,
						"TEXCOORD_0":48
					},
					"indices":39,
					"material":5
				}
			]
		},
		{
			"name":"Mesh.016",
			"primitives":[
				{
					"attributes":{
						"POSITION":49,
						"NORMAL":50,
						"TEXCOORD_0":51
					},
					"indices":39,
					"material":5
				}
			]
		},
		{
			"name":"Mesh.009",
			"primitives":[
				{
					"attributes":{
						"POSITION":52,
						"NORMAL":53,
						"TEXCOORD_0":54
					},
					"indices":39,
					"material":6
				}
			]
		},
		{
			"name":"Mesh.019",
			"primitives":[
				{
					"attributes":{
						"POSITION":55,
						"NORMAL":56,
						"TEXCOORD_0":57
					},
					"indices":39,
					"material":5
				}
			]
		},
		{
			"name":"Mesh.020",
			"primitives":[
				{
					"attributes":{
						"POSITION":58,
						"NORMAL":59,
						"TEXCOORD_0":60
					},
					"indices":39,
					"material":5
				}
			]
		}
	],
	"accessors":[
		{
			"bufferView":0,
			"componentType":5126,
			"count":88,
			"max":[
				0.8090170621871948,
				1.000000238418579,
				1
			],
			"min":[
				-1.0000003576278687,
				-1.6391277313232422e-07,
				-1
			],
			"type":"VEC3"
		},
		{
			"bufferView":1,
			"componentType":5126,
			"count":88,
			"type":"VEC3"
		},
		{
			"bufferView":2,
			"componentType":5126,
			"count":88,
			"type":"VEC2"
		},
		{
			"bufferView":3,
			"componentType":5123,
			"count":204,
			"type":"SCALAR"
		},
		{
			"bufferView":4,
			"componentType":5126,
			"count":54,
			"max":[
				2.2351740369686013e-07,
				0,
				1
			],
			"min":[
				-1.0000003576278687,
				-1.0000005960464478,
				-1
			],
			"type":"VEC3"
		},
		{
			"bufferView":5,
			"componentType":5126,
			"count":54,
			"type":"VEC3"
		},
		{
			"bufferView":6,
			"componentType":5126,
			"count":54,
			"type":"VEC2"
		},
		{
			"bufferView":7,
			"componentType":5123,
			"count":132,
			"type":"SCALAR"
		},
		{
			"bufferView":8,
			"componentType":5126,
			"count":30,
			"max":[
				0.5877858400344849,
				0,
				1
			],
			"min":[
				0,
				-1.0000005960464478,
				-1
			],
			"type":"VEC3"
		},
		{
			"bufferView":9,
			"componentType":5126,
			"count":30,
			"type":"VEC3"
		},
		{
			"bufferView":10,
			"componentType":5126,
			"count":30,
			"type":"VEC2"
		},
		{
			"bufferView":11,
			"componentType":5123,
			"count":60,
			"type":"SCALAR"
		},
		{
			"bufferView":12,
			"componentType":5126,
			"count":30,
			"max":[
				0.9510571360588074,
				0,
				1
			],
			"min":[
				0,
				-0.8090173602104187,
				-1
			],
			"type":"VEC3"
		},
		{
			"bufferView":13,
			"componentType":5126,
			"count":30,
			"type":"VEC3"
		},
		{
			"bufferView":14,
			"componentType":5126,
			"count":30,
			"type":"VEC2"
		},
		{
			"bufferView":15,
			"componentType":5123,
			"count":60,
			"type":"SCALAR"
		},
		{
			"bufferView":16,
			"componentType":5126,
			"count":40,
			"max":[
				1,
				0.5877853631973267,
				1
			],
			"min":[
				0,
				-0.3090169429779053,
				-1
			],
			"type":"VEC3"
		},
		{
			"bufferView":17,
			"componentType":5126,
			"count":40,
			"type":"VEC3"
		},
		{
			"bufferView":18,
			"componentType":5126,
			"count":40,
			"type":"VEC2"
		},
		{
			"bufferView":19,
			"componentType":5123,
			"count":84,
			"type":"SCALAR"
		},
		{
			"bufferView":20,
			"componentType":5126,
			"count":24,
			"max":[
				0.5,
				0.5,
				0.5
			],
			"min":[
				-0.5,
				-0.5,
				-0.5
			],
			"type":"VEC3"
		},
		{
			"bufferView":21,
			"componentType":5126,
			"count":24,
			"type":"VEC3"
		},
		{
			"bufferView":22,
			"componentType":5126,
			"count":24,
			"type":"VEC2"
		},
		{
			"bufferView":23,
			"componentType":5123,
			"count":36,
			"type":"SCALAR"
		},
		{
			"bufferView":24,
			"componentType":5126,
			"count":24,
			"max":[
				0.5,
				0.5,
				0.5
			],
			"min":[
				-0.5,
				-0.5,
				-0.5
			],
			"type":"VEC3"
		},
		{
			"bufferView":25,
			"componentType":5126,
			"count":24,
			"type":"VEC3"
		},
		{
			"bufferView":26,
			"componentType":5126,
			"count":24,
			"type":"VEC2"
		},
		{
			"bufferView":27,
			"componentType":5126,
			"count":24,
			"max":[
				0.5,
				0.5,
				0.5
			],
			"min":[
				-0.5,
				-0.5,
				-0.5
			],
			"type":"VEC3"
		},
		{
			"bufferView":28,
			"componentType":5126,
			"count":24,
			"type":"VEC3"
		},
		{
			"bufferView":29,
			"componentType":5126,
			"count":24,
			"type":"VEC2"
		},
		{
			"bufferView":30,
			"componentType":5126,
			"count":24,
			"max":[
				0.5,
				0.5,
				0.5
			],
			"min":[
				-0.5,
				-0.5,
				-0.5
			],
			"type":"VEC3"
		},
		{
			"bufferView":31,
			"componentType":5126,
			"count":24,
			"type":"VEC3"
		},
		{
			"bufferView":32,
			"componentType":5126,
			"count":24,
			"type":"VEC2"
		},
		{
			"bufferView":33,
			"componentType":5126,
			"count":24,
			"max":[
				0.5,
				0.5,
				0.5
			],
			"min":[
				-0.5,
				-0.5,
				-0.5
			],
			"type":"VEC3"
		},
		{
			"bufferView":34,
			"componentType":5126,
			"count":24,
			"type":"VEC3"
		},
		{
			"bufferView":35,
			"componentType":5126,
			"count":24,
			"type":"VEC2"
		},
		{
			"bufferView":36,
			"componentType":5126,
			"count":4,
			"max":[
				0.5,
				0.5,
				0
			],
			"min":[
				-0.5,
				-0.5,
				0
			],
			"type":"VEC3"
		},
		{
			"bufferView":37,
			"componentType":5126,
			"count":4,
			"type":"VEC3"
		},
		{
			"bufferView":38,
			"componentType":5126,
			"count":4,
			"type":"VEC2"
		},
		{
			"bufferView":39,
			"componentType":5123,
			"count":6,
			"type":"SCALAR"
		},
		{
			"bufferView":40,
			"componentType":5126,
			"count":4,
			"max":[
				0.5,
				0.5,
				0
			],
			"min":[
				-0.5,
				-0.5,
				0
			],
			"type":"VEC3"
		},
		{
			"bufferView":41,
			"componentType":5126,
			"count":4,
			"type":"VEC3"
		},
		{
			"bufferView":42,
			"componentType":5126,
			"count":4,
			"type":"VEC2"
		},
		{
			"bufferView":43,
			"componentType":5126,
			"count":4,
			"max":[
				0.5,
				0.5,
				0
			],
			"min":[
				-0.5,
				-0.5,
				0
			],
			"type":"VEC3"
		},
		{
			"bufferView":44,
			"componentType":5126,
			"count":4,
			"type":"VEC3"
		},
		{
			"bufferView":45,
			"componentType":5126,
			"count":4,
			"type":"VEC2"
		},
		{
			"bufferView":46,
			"componentType":5126,
			"count":4,
			"max":[
				0.5,
				0.5,
				0
			],
			"min":[
				-0.5,
				-0.5,
				0
			],
			"type":"VEC3"
		},
		{
			"bufferView":47,
			"componentType":5126,
			"count":4,
			"type":"VEC3"
		},
		{
			"bufferView":48,
			"componentType":5126,
			"count":4,
			"type":"VEC2"
		},
		{
			"bufferView":49,
			"componentType":5126,
			"count":4,
			"max":[
				0.5,
				0.5,
				0
			],
			"min":[
				-0.5,
				-0.5,
				0
			],
			"type":"VEC3"
		},
		{
			"bufferView":50,
			"componentType":5126,
			"count":4,
			"type":"VEC3"
		},
		{
			"bufferView":51,
			"componentType":5126,
			"count":4,
			"type":"VEC2"
		},
		{
			"bufferView":52,
			"componentType":5126,
			"count":4,
			"max":[
				0.5,
				0.5,
				0
			],
			"min":[
				-0.5,
				-0.5,
				0
			],
			"type":"VEC3"
		},
		{
			"bufferView":53,
			"componentType":5126,
			"count":4,
			"type":"VEC3"
		},
		{
			"bufferView":54,
			"componentType":5126,
			"count":4,
			"type":"VEC2"
		},
		{
			"bufferView":55,
			"componentType":5126,
			"count":4,
			"max":[
				0.5,
				0.5,
				0
			],
			"min":[
				-0.5,
				-0.5,
				0
			],
			"type":"VEC3"
		},
		{
			"bufferView":56,
			"componentType":5126,
			"count":4,
			"type":"VEC3"
		},
		{
			"bufferView":57,
			"componentType":5126,
			"count":4,
			"type":"VEC2"
		},
		{
			"bufferView":58,
			"componentType":5126,
			"count":4,
			"max":[
				0.5,
				0.5,
				0
			],
			"min":[
				-0.5,
				-0.5,
				0
			],
			"type":"VEC3"
		},
		{
			"bufferView":59,
			"componentType":5126,
			"count":4,
			"type":"VEC3"
		},
		{
			"bufferView":60,
			"componentType":5126,
			"count":4,
			"type":"VEC2"
		}
	],
	"bufferViews":[
		{
			"buffer":0,
			"byteLength":1056,
			"byteOffset":0,
			"target":34962
		},
		{
			"buffer":0,
			"byteLength":1056,
			"byteOffset":1056,
			"target":34962
		},
		{
			"buffer":0,
			"byteLength":704,
			"byteOffset":2112,
			"target":34962
		},
		{
			"buffer":0,
			"byteLength":408,
			"byteOffset":2816,
			"target":34963
		},
		{
			"buffer":0,
			"byteLength":648,
			"byteOffset":3224,
			"target":34962
		},
		{
			"buffer":0,
			"byteLength":648,
			"byteOffset":3872,
			"target":34962
		},
		{
			"buffer":0,
			"byteLength":432,
			"byteOffset":4520,
			"target":34962
		},
		{
			"buffer":0,
			"byteLength":264,
			"byteOffset":4952,
			"target":34963
		},
		{
			"buffer":0,
			"byteLength":360,
			"byteOffset":5216,
			"target":34962
		},
		{
			"buffer":0,
			"byteLength":360,
			"byteOffset":5576,
			"target":34962
		},
		{
			"buffer":0,
			"byteLength":240,
			"byteOffset":5936,
			"target":34962
		},
		{
			"buffer":0,
			"byteLength":120,
			"byteOffset":6176,
			"target":34963
		},
		{
			"buffer":0,
			"byteLength":360,
			"byteOffset":6296,
			"target":34962
		},
		{
			"buffer":0,
			"byteLength":360,
			"byteOffset":6656,
			"target":34962
		},
		{
			"buffer":0,
			"byteLength":240,
			"byteOffset":7016,
			"target":34962
		},
		{
			"buffer":0,
			"byteLength":120,
			"byteOffset":7256,
			"target":34963
		},
		{
			"buffer":0,
			"byteLength":480,
			"byteOffset":7376,
			"target":34962
		},
		{
			"buffer":0,
			"byteLength":480,
			"byteOffset":7856,
			"target":34962
		},
		{
			"buffer":0,
			"byteLength":320,
			"byteOffset":8336,
			"target":34962
		},
		{
			"buffer":0,
			"byteLength":168,
			"byteOffset":8656,
			"target":34963
		},
		{
			"buffer":0,
			"byteLength":288,
			"byteOffset":8824,
			"target":34962
		},
		{
			"buffer":0,
			"byteLength":288,
			"byteOffset":9112,
			"target":34962
		},
		{
			"buffer":0,
			"byteLength":192,
			"byteOffset":9400,
			"target":34962
		},
		{
			"buffer":0,
			"byteLength":72,
			"byteOffset":9592,
			"target":34963
		},
		{
			"buffer":0,
			"byteLength":288,
			"byteOffset":9664,
			"target":34962
		},
		{
			"buffer":0,
			"byteLength":288,
			"byteOffset":9952,
			"target":34962
		},
		{
			"buffer":0,
			"byteLength":192,
			"byteOffset":10240,
			"target":34962
		},
		{
			"buffer":0,
			"byteLength":288,
			"byteOffset":10432,
			"target":34962
		},
		{
			"buffer":0,
			"byteLength":288,
			"byteOffset":10720,
			"target":34962
		},
		{
			"buffer":0,
			"byteLength":192,
			"byteOffset":11008,
			"target":34962
		},
		{
			"buffer":0,
			"byteLength":288,
			"byteOffset":11200,
			"target":34962
		},
		{
			"buffer":0,
			"byteLength":288,
			"byteOffset":11488,
			"target":34962
		},
		{
			"buffer":0,
			"byteLength":192,
			"byteOffset":11776,
			"target":34962
		},
		{
			"buffer":0,
			"byteLength":288,
			"byteOffset":11968,
			"target":34962
		},
		{
			"buffer":0,
			"byteLength":288,
			"byteOffset":12256,
			"target":34962
		},
		{
			"buffer":0,
			"byteLength":192,
			"byteOffset":12544,
			"target":34962
		},
		{
			"buffer":0,
			"byteLength":48,
			"byteOffset":12736,
			"target":34962
		},
		{
			"buffer":0,
			"byteLength":48,
			"byteOffset":12784,
			"target":34962
		},
		{
			"buffer":0,
			"byteLength":32,
			"byteOffset":12832,
			"target":34962
		},
		{
			"buffer":0,
			"byteLength":12,
			"byteOffset":12864,
			"target":34963
		},
		{
			"buffer":0,
			"byteLength":48,
			"byteOffset":12876,
			"target":34962
		},
		{
			"buffer":0,
			"byteLength":48,
			"byteOffset":12924,
			"target":34962
		},
		{
			"buffer":0,
			"byteLength":32,
			"byteOffset":12972,
			"target":34962
		},
		{
			"buffer":0,
			"byteLength":48,
			"byteOffset":13004,
			"target":34962
		},
		{
			"buffer":0,
			"byteLength":48,
			"byteOffset":13052,
			"target":34962
		},
		{
			"buffer":0,
			"byteLength":32,
			"byteOffset":13100,
			"target":34962
		},
		{
			"buffer":0,
			"byteLength":48,
			"byteOffset":13132,
			"target":34962
		},
		{
			"buffer":0,
			"byteLength":48,
			"byteOffset":13180,
			"target":34962
		},
		{
			"buffer":0,
			"byteLength":32,
			"byteOffset":13228,
			"target":34962
		},
		{
			"buffer":0,
			"byteLength":48,
			"byteOffset":13260,
			"target":34962
		},
		{
			"buffer":0,
			"byteLength":48,
			"byteOffset":13308,
			"target":34962
		},
		{
			"buffer":0,
			"byteLength":32,
			"byteOffset":13356,
			"target":34962
		},
		{
			"buffer":0,
			"byteLength":48,
			"byteOffset":13388,
			"target":34962
		},
		{
			"buffer":0,
			"byteLength":48,
			"byteOffset":13436,
			"target":34962
		},
		{
			"buffer":0,
			"byteLength":32,
			"byteOffset":13484,
			"target":34962
		},
		{
			"buffer":0,
			"byteLength":48,
			"byteOffset":13516,
			"target":34962
		},
		{
			"buffer":0,
			"byteLength":48,
			"byteOffset":13564,
			"target":34962
		},
		{
			"buffer":0,
			"byteLength":32,
			"byteOffset":13612,
			"target":34962
		},
		{
			"buffer":0,
			"byteLength":48,
			"byteOffset":13644,
			"target":34962
		},
		{
			"buffer":0,
			"byteLength":48,
			"byteOffset":13692,
			"target":34962
		},
		{
			"buffer":0,
			"byteLength":32,
			"byteOffset":13740,
			"target":34962
		}
	],
	"buffers":[
		{
			"byteLength":13772,
			"uri":"GraficosBinacional.bin"
		}
	]
}
